<svg xmlns="http://www.w3.org/2000/svg" width="73.233" height="82.388" viewBox="0 0 73.233 82.388">
  <g id="Group_8" data-name="Group 8" transform="translate(-1384.486 -1582.011)">
    <path id="Path_21" data-name="Path 21" d="M1419.35,1628.524a2.567,2.567,0,0,0,2.891-1.894,3.39,3.39,0,0,0,.092-1.312,2.828,2.828,0,0,0-1.106-1.849,2.538,2.538,0,0,0-1.667-.479,2.578,2.578,0,0,0-1.716.911,2.973,2.973,0,0,0-.363,3.168A2.636,2.636,0,0,0,1419.35,1628.524Z" fill="#26786a"/>
    <path id="Path_22" data-name="Path 22" d="M1434.819,1628.5a2.411,2.411,0,0,0,1.784.131,2.662,2.662,0,0,0,1.692-1.666,2.908,2.908,0,0,0-1-3.343,2.4,2.4,0,0,0-2.017-.379,2.59,2.59,0,0,0-1.53,1.14,2.966,2.966,0,0,0-.269,2.631A2.77,2.77,0,0,0,1434.819,1628.5Z" fill="#26786a"/>
    <path id="Path_23" data-name="Path 23" d="M1438.123,1634.644a1.88,1.88,0,0,0-1.757-.35,2.563,2.563,0,0,0-1.061.737,14.307,14.307,0,0,1-2.37,1.922,8.771,8.771,0,0,1-3.4,1.258,11.216,11.216,0,0,1-4.977-.331,8.744,8.744,0,0,1-3.47-2.127,7.273,7.273,0,0,0-1.415-1.263,1.924,1.924,0,0,0-2.237.492,2.266,2.266,0,0,0,.01,2.958,15.749,15.749,0,0,0,3.3,2.811,11.824,11.824,0,0,0,4.379,1.654,9.981,9.981,0,0,0,1.688.184c.34-.006.677.055,1.018.046a18.256,18.256,0,0,0,2.37-.2,12.556,12.556,0,0,0,3.735-1.209,16.54,16.54,0,0,0,3.89-2.871,4.061,4.061,0,0,0,.821-.925A2.262,2.262,0,0,0,1438.123,1634.644Z" fill="#26786a"/>
    <path id="Path_24" data-name="Path 24" d="M1457.223,1624.418a6.093,6.093,0,0,0-2.722-3.134,7.286,7.286,0,0,1-.087-.858,32.893,32.893,0,0,0-1.554-7.642,31.2,31.2,0,0,0-1.576-3.884,28.309,28.309,0,0,0-10.811-11.945l-.047-.026a24.046,24.046,0,0,0-7.578-2.883c.3-.211.6-.431.889-.672a7.951,7.951,0,0,0,2.463-3.432,8.36,8.36,0,0,0,.387-4.607,4.7,4.7,0,0,0-1.383-2.41,3.2,3.2,0,0,0-2.865-.841,2.883,2.883,0,0,0-2.048,1.663,2.679,2.679,0,0,0-.184,1.376,1.919,1.919,0,0,0,1.005,1.383,1.685,1.685,0,0,0,1.542-.041c.222-.13.376-.416.667-.378a3.637,3.637,0,0,1-.029,2.052,4.2,4.2,0,0,1-1.623,2.146,44.136,44.136,0,0,1-4.059,2.463,7.509,7.509,0,0,1-1.628-1.4,19.317,19.317,0,0,1-2.641-3.759,4.85,4.85,0,0,1-.495-1.218c-.063-.211.1-.39.264-.5.342-.217.8.01,1.117-.261a1.621,1.621,0,0,0,.6-1.427,2.1,2.1,0,0,0-.991-1.749,1.919,1.919,0,0,0-1.725-.033,4.088,4.088,0,0,0-1.92,1.871,5.507,5.507,0,0,0-.52,2.388,6.508,6.508,0,0,0,.648,2.426,20.362,20.362,0,0,0,2.433,3.382,4.393,4.393,0,0,1,.675,1.356.647.647,0,0,1-.034.271.441.441,0,0,0-.332.124,24.152,24.152,0,0,0-6.884,2.769v0l-.046.03c-.483.287-.953.6-1.416.914q-.267.183-.529.372c-.066.048-.135.093-.2.141-.019.015-.033.035-.051.05a28.309,28.309,0,0,0-8.566,10.327,30.719,30.719,0,0,0-1.435,3.5,6.344,6.344,0,0,0-12.227,2.383v5.009a8.52,8.52,0,0,0-2,3.975h-.146a5.08,5.08,0,0,0-5.074,5.075v30.564a5.079,5.079,0,0,0,5.074,5.073h17.047a5.08,5.08,0,0,0,5.075-5.073v-13.375a26.65,26.65,0,0,0,4.574,3.434,23.8,23.8,0,0,0,7.715,2.911,26.474,26.474,0,0,0,4.043.425h.647a28.327,28.327,0,0,0,3.318-.295,23.749,23.749,0,0,0,7.98-2.772,27.5,27.5,0,0,0,9.307-8.731,30.88,30.88,0,0,0,3.711-7.711,6.092,6.092,0,0,0,1.838-.777,6.321,6.321,0,0,0,2.606-3.524,8.608,8.608,0,0,0,.3-1.825v-.3A7.17,7.17,0,0,0,1457.223,1624.418Zm-62.1-9.715a2.931,2.931,0,0,1,5.862,0v2.653a8.553,8.553,0,0,0-5.862.02Zm2.958,5.565a5.076,5.076,0,0,1,3.416,1.327,5.145,5.145,0,0,1,1.414,2.092h-9.661A5.135,5.135,0,0,1,1398.084,1620.268Zm5.347,24.915h4.831v5.619h-4.831a1.71,1.71,0,1,0,0,3.42h4.831v5.1a1.657,1.657,0,0,1-1.655,1.654H1389.56a1.656,1.656,0,0,1-1.654-1.654v-30.564a1.656,1.656,0,0,1,1.654-1.655h16.349a2.356,2.356,0,0,1,2.353,2.353v3.266h-4.831a1.71,1.71,0,1,0,0,3.419h4.831v5.618h-4.831a1.71,1.71,0,1,0,0,3.42Zm50.6-17.4a2.469,2.469,0,0,1-1.647,1.651c-.407.135-.848,0-1.253.142a1.9,1.9,0,0,0-1.2,1.334,27.233,27.233,0,0,1-3.886,8.32,23.792,23.792,0,0,1-5.5,5.63,21.23,21.23,0,0,1-6.7,3.272,20.386,20.386,0,0,1-10.792.054,21.322,21.322,0,0,1-7.167-3.518,23.381,23.381,0,0,1-4.2-4.078V1629.46a5.78,5.78,0,0,0-5.216-5.745,8.468,8.468,0,0,0-.715-2.08,28.265,28.265,0,0,1,3.086-11.538c.031-.057.046-.122.072-.183a25.055,25.055,0,0,1,7.214-8.433c.25-.173.495-.354.754-.514a20.519,20.519,0,0,1,11.75-3.536,20.108,20.108,0,0,1,9.323,2.462,22.167,22.167,0,0,1,2.476,1.589,25.228,25.228,0,0,1,8.074,10.058c.184.407.333.828.5,1.244a27.942,27.942,0,0,1,1.88,8.082c.089.733.034,1.477.145,2.209a1.847,1.847,0,0,0,1.139,1.328,3.072,3.072,0,0,1,1.149.582A2.734,2.734,0,0,1,1454.034,1627.78Z" fill="#26786a"/>
  </g>
</svg>
