<svg xmlns="http://www.w3.org/2000/svg" width="79.978" height="80.787" viewBox="0 0 79.978 80.787">
  <g id="Group_13" data-name="Group 13" transform="translate(-1379.398 -2117.157)">
    <path id="Path_40" data-name="Path 40" d="M1440.189,2192.391l0,0c-2.108-3.054-5.524-5.348-10.212-6.833a9.545,9.545,0,0,1-4.708-2.221c.467-.07.934-.133,1.4-.2,1.16-.157,2.361-.32,3.534-.59a1.725,1.725,0,0,0,1.093-.794,1.692,1.692,0,0,0,.171-1.344,1.717,1.717,0,0,0-2.015-1.218,21.84,21.84,0,0,1-12.675-.711l-.268-.108-.649.509a14.982,14.982,0,0,1-4.078,2.561,14.233,14.233,0,0,1-6.472-.019c-2.822-1.109-5.727-3.812-5.435-7.129l.005-.051-.006-.05a4.759,4.759,0,0,1,3.495-5.266,6.8,6.8,0,0,0,1.987-1,7.578,7.578,0,0,0,2.3-2.8c.088-.152.176-.3.264-.454a6.629,6.629,0,0,1,1.688.417c.356.12.713.241,1.043.32a16.844,16.844,0,0,0,9.917-.324c.05.111.1.222.151.332a11.121,11.121,0,0,1,.614,1.518,7.663,7.663,0,0,1,.059,1.336,10.335,10.335,0,0,0,.039,1.264,1.693,1.693,0,0,0,3.372-.125c.017-.426.031-.85.034-1.245a8.061,8.061,0,0,0-2.964-6.727l-.178-.092a3.341,3.341,0,0,0-2.223.326,7.2,7.2,0,0,1-.8.284,9.467,9.467,0,0,1-3.767.431c-.347,0-.694-.01-1.035-.008a12.082,12.082,0,0,1-4.475-1.054c-.331-.121-.661-.243-.992-.359a2.746,2.746,0,0,0-2.116.122,2.661,2.661,0,0,0-1.365,1.533,4.627,4.627,0,0,1-1.871,2.66,3.7,3.7,0,0,1-4.44.172c-1.332-.669-2.109-2.051-2.443-4.348a1.568,1.568,0,0,0-3.117.214,14.087,14.087,0,0,0,.379,3.469l-.033,0a3.945,3.945,0,0,1-2.13-.245c-.53-.264-1.055-.583-1.561-.892l-.141-.086a1.827,1.827,0,0,0-1.573-.15,1.7,1.7,0,0,0-1.031,1.062,1.328,1.328,0,0,0,.128,1.131,6.77,6.77,0,0,0,3.989,2.57,5.068,5.068,0,0,0,2.928.007,4.954,4.954,0,0,1,2.114-.132,6.454,6.454,0,0,1,1.7,1.019,13.181,13.181,0,0,0-1.264,2.773,17.025,17.025,0,0,0-.246,3.422l-.5.018a35.807,35.807,0,0,1-4.305-.121,10.318,10.318,0,0,1-8.312-8.19,15.873,15.873,0,0,1,.277-8.03,2.245,2.245,0,0,0,1.511-3.468c-.133-.2-.265-.4-.385-.6a11.959,11.959,0,0,1-.016-3.213,3.978,3.978,0,0,1,2.816-2.514,4.121,4.121,0,0,1,3.819.737,2.189,2.189,0,0,0,3.022.267l.123-.112.059-.309c.117-.576.291-1.447-.341-1.965a7.7,7.7,0,0,0-4.324-2.217,6.969,6.969,0,0,1,6.523-5.2h.056l.054.381a1.815,1.815,0,0,0,1.785,1.51,1.688,1.688,0,0,0,1.26-.608c.208-.252.4-.514.6-.776a9.972,9.972,0,0,1,1.049-1.261,10.547,10.547,0,0,1,4.8-2.885,11.585,11.585,0,0,1,2.388-.253c.468-.017.935-.035,1.4-.082a1.68,1.68,0,0,0,1.181-2.707,1.759,1.759,0,0,0-1.33-.687,21.725,21.725,0,0,0-3.511.107,16.288,16.288,0,0,0-7.166,3.664c-.528.049-1.061.055-1.623.062a10.051,10.051,0,0,0-3.71.514,10.759,10.759,0,0,0-7.434,8.466,8.538,8.538,0,0,0-4.986,5.267,10.552,10.552,0,0,0-.1,3.267c.044.59.085,1.149.071,1.707-.14.357-.3.708-.463,1.059a8.623,8.623,0,0,0-.969,3.114c-.352,3.569-.456,7.316,1.141,10.5a13.809,13.809,0,0,0,10.588,7.974c1.074.078,2.159.068,3.207.058.892-.008,1.817-.017,2.717.03a9.262,9.262,0,0,1,.623.9c.159.25.317.5.487.732a12.372,12.372,0,0,0,6.991,4.631,34.377,34.377,0,0,0,6.211.055,13.745,13.745,0,0,0,4.7-2.1c.28-.171.56-.342.841-.507a12.9,12.9,0,0,1,2.971.431c.7.12,1.072.733,1.5,1.442a6.457,6.457,0,0,0,.8,1.136c1.889,2.065,4.563,2.852,7.149,3.611l.428.125a16.4,16.4,0,0,1,6.5,4,9.08,9.08,0,0,1,1.706,2.985c.1.239.2.477.3.713a1.7,1.7,0,0,0,1.811.994,1.715,1.715,0,0,0,1.141-.7,1.633,1.633,0,0,0,.28-1.259A9.623,9.623,0,0,0,1440.189,2192.391Z" fill="#26786a"/>
    <path id="Path_41" data-name="Path 41" d="M1403.336,2151.6l-.054.042a3.119,3.119,0,0,1-1.975.569,6.016,6.016,0,0,0-1.715.3l-.153.092a1.565,1.565,0,0,0-.511.9,1.866,1.866,0,0,0,.386,1.524,1.986,1.986,0,0,0,1.506.742c.112,0,.225,0,.34,0a5.961,5.961,0,0,0,3.084-.683,9.444,9.444,0,0,0,3.492-3.087c.188.041.377.084.566.128a9.645,9.645,0,0,0,3.42.361l.4-.05.038-.4q.081-.887.153-1.774l.03-.367-.342-.138c-.485-.2-.975-.38-1.466-.563-.565-.213-1.131-.425-1.69-.657a8.474,8.474,0,0,0-1.6-5.143,1.641,1.641,0,0,0-1.2-.539,2.269,2.269,0,0,0-1.6.665l-.12.119-.023.167a4.184,4.184,0,0,0,.548,2.354,3.49,3.49,0,0,1,.47,1.862A4.233,4.233,0,0,1,1403.336,2151.6Z" fill="#26786a"/>
    <path id="Path_42" data-name="Path 42" d="M1449.7,2162.272l0,.5h0l-.024-.5a1.665,1.665,0,0,0-1.61,2.017c.073.35.165.7.256,1.044a6.954,6.954,0,0,1,.351,2.728,8.526,8.526,0,0,1-4.374,6.382,8.27,8.27,0,0,1-5.307.673c-2-.389-3.488-1.837-4.837-3.286a1.776,1.776,0,0,0-1.551-.548,1.649,1.649,0,0,0-1.262.891,1.563,1.563,0,0,0-.054,1.252c.931,2,2.876,3.6,5.76,4.731a10.108,10.108,0,0,0,4.662.552c.333-.013.657-.025.976-.031a9.3,9.3,0,0,1-5.029,3.575,7.3,7.3,0,0,1-1.115.269,4.48,4.48,0,0,0-2.331.929l-.1.092-.041.129a1.88,1.88,0,0,0,.355,1.721,1.384,1.384,0,0,0,1.213.5,5.546,5.546,0,0,0,.973-.016c.714-.053,1.167-.067,1.513.327a12.991,12.991,0,0,1,4.208,9.25,1.692,1.692,0,0,0,1.318,1.667,2.63,2.63,0,0,0,.581.071,1.379,1.379,0,0,0,1.345-.854l.042-.149c.439-3.824-1.055-7.97-4.217-11.731a13.936,13.936,0,0,0,4.75-4.651,9.959,9.959,0,0,0,.876-1.8,5.665,5.665,0,0,1,1.354-2.282,11.009,11.009,0,0,0,2.825-12.5A1.7,1.7,0,0,0,1449.7,2162.272Z" fill="#26786a"/>
    <path id="Path_43" data-name="Path 43" d="M1418.772,2167.977l-.212-.166a2.651,2.651,0,0,0-2.428-.662l-.217.066-.093.206c-.2.44-.355.9-.505,1.346a5.852,5.852,0,0,1-1.3,2.491,4.311,4.311,0,0,1-2.918,1.344,4.714,4.714,0,0,1-3.107-1.2c-.359-.243-.715-.484-1.078-.69l-.32-.182-.48.448a7.954,7.954,0,0,0-.939.97l-.132.169.032.212a4.38,4.38,0,0,0,.5,1.56l.1.127a8.1,8.1,0,0,0,7.527,1.747,13.826,13.826,0,0,0,3.4-1.952,9.269,9.269,0,0,1,1.135,1.512c.184.282.368.566.566.838a1.772,1.772,0,0,0,1.44.73c.037,0,.074,0,.11,0a1.691,1.691,0,0,0,1.388-.861,1.537,1.537,0,0,0,.158-1.136,7.643,7.643,0,0,0-3.05-4.173,15.733,15.733,0,0,0,.4-2.479Z" fill="#26786a"/>
    <path id="Path_44" data-name="Path 44" d="M1440.084,2128.62a4.647,4.647,0,1,0-6.236,4.362v6.227a1.693,1.693,0,1,0,3.386,0v-6.3A4.636,4.636,0,0,0,1440.084,2128.62Zm-3.385,0a1.261,1.261,0,1,1-1.261-1.262A1.262,1.262,0,0,1,1436.7,2128.62Z" fill="#26786a"/>
    <path id="Path_45" data-name="Path 45" d="M1446.508,2129.874a4.643,4.643,0,0,0-4.548,5.6l-2.7,1.784a1.689,1.689,0,0,0-.76,1.412v4.893a1.693,1.693,0,0,0,3.386,0v-3.982l1.926-1.273a4.646,4.646,0,1,0,2.7-8.431Zm1.261,4.647a1.261,1.261,0,1,1-1.261-1.261A1.263,1.263,0,0,1,1447.769,2134.521Z" fill="#26786a"/>
    <path id="Path_46" data-name="Path 46" d="M1435.54,2142a1.694,1.694,0,0,0-1.692,1.692v14.082a1.693,1.693,0,1,0,3.386,0V2143.69A1.7,1.7,0,0,0,1435.54,2142Z" fill="#26786a"/>
    <path id="Path_47" data-name="Path 47" d="M1440.194,2146.53a1.694,1.694,0,0,0-1.693,1.693v9.539a1.693,1.693,0,1,0,3.386,0v-9.539A1.7,1.7,0,0,0,1440.194,2146.53Z" fill="#26786a"/>
    <path id="Path_48" data-name="Path 48" d="M1430.617,2152.875a1.694,1.694,0,0,0-1.693,1.693v3.194a1.693,1.693,0,1,0,3.386,0v-3.194A1.7,1.7,0,0,0,1430.617,2152.875Z" fill="#26786a"/>
    <path id="Path_49" data-name="Path 49" d="M1428.034,2138.736a4.573,4.573,0,0,0,.363-1.8,4.65,4.65,0,1,0-2.721,4.228l3.248,2.944v5.713a1.693,1.693,0,1,0,3.386,0v-6.463a1.7,1.7,0,0,0-.556-1.255Zm-3.023-1.8a1.261,1.261,0,1,1-1.261-1.261A1.261,1.261,0,0,1,1425.011,2136.94Z" fill="#26786a"/>
    <path id="Path_50" data-name="Path 50" d="M1435.541,2117.157a23.835,23.835,0,1,0,23.835,23.835A23.863,23.863,0,0,0,1435.541,2117.157Zm20.449,23.835a20.449,20.449,0,1,1-20.449-20.449A20.472,20.472,0,0,1,1455.99,2140.992Z" fill="#26786a"/>
  </g>
</svg>
