<svg xmlns="http://www.w3.org/2000/svg" width="75.185" height="70.575" viewBox="0 0 75.185 70.575">
  <g id="Group_1" data-name="Group 1" transform="translate(-1379.07 -1457.92)">
    <path id="Path_1" data-name="Path 1" d="M1389.656,1461.019a20.729,20.729,0,0,1,22.035.144,22.841,22.841,0,0,1,8.225,9.034c4.284,0,8.568.006,12.852-.006a8.674,8.674,0,0,1,.568-4.033,6.09,6.09,0,0,1,11.082-.138,8.478,8.478,0,0,1,.631,4.173,13.669,13.669,0,0,1,3.105.186,8.158,8.158,0,0,1,5.912,5.914,13.376,13.376,0,0,1,.187,3.109q-.006,20.041,0,40.08c-.006.706.028,1.414-.045,2.117a8,8,0,0,1-7.619,6.9q-27.62,0-55.245,0a8.011,8.011,0,0,1-7.544-6.4,14.342,14.342,0,0,1-.121-2.612q.009-12.657,0-25.312c-.064-.634.168-1.361-.188-1.925a20.942,20.942,0,0,1-3.887-17.5,22.01,22.01,0,0,1,10.05-13.729m8.678.1a18.537,18.537,0,0,0-6.041,1.76,17.907,17.907,0,0,0-8.948,9.867,19.052,19.052,0,0,0-.892,10.135,18.184,18.184,0,0,0,6.862,11.218,18.853,18.853,0,0,0,22.589-.084,18.19,18.19,0,0,0,6.781-11.3,19.009,19.009,0,0,0-.919-9.961,17.871,17.871,0,0,0-7.577-9.132,18.845,18.845,0,0,0-11.855-2.506m39.861,4.5-.038.169a2.607,2.607,0,0,0-2.121,2.121l-.171.04-.074.192.1.144c-.115,2.106-.017,4.225-.051,6.334a3.113,3.113,0,0,0,1.321,2.693,3.734,3.734,0,0,0,2.345.573,3.216,3.216,0,0,0,2.465-2.884c.038-1.793-.014-3.586.017-5.379a4.42,4.42,0,0,0-.464-2.6,3.374,3.374,0,0,0-2.169-1.436c-.274.008-.549.027-.821.06l-.146-.1-.192.076m-17.063,7.664a22.8,22.8,0,0,1,.89,5.342,22.316,22.316,0,0,1-1.126,7.667c6.967.039,13.936-.009,20.9.021.516-.063.794.413,1.091.743-.27.374-.541.889-1.091.784q-10.557,0-21.114,0c-.269-.021-.549.056-.608.351a23.1,23.1,0,0,1-6.319,8.035,4.148,4.148,0,0,1,3.644,3.492c.069,1.159.019,2.321.025,3.481a3.977,3.977,0,0,1-3.262,3.766c-1.147.11-2.305.031-3.456.056a4.016,4.016,0,0,1-3.905-2.957,35.232,35.232,0,0,1-.126-4.1c-1,.293-2.023.51-3.047.707-.021.842.007,1.684-.008,2.528a4.011,4.011,0,0,1-2.679,3.619,16.252,16.252,0,0,1-3.847.2,4,4,0,0,1-4.2-3.63c-.051-1.327.029-2.656-.03-3.983a23.569,23.569,0,0,1-6.116-3.686q-.009,11.974,0,23.952a8.476,8.476,0,0,0,.253,2.8,4.106,4.106,0,0,0,2.524,2.635,8.534,8.534,0,0,0,3.17.314q26.951,0,53.9,0a4.642,4.642,0,0,0,3.322-1.265,4.746,4.746,0,0,0,1.269-3.516c-.013-11.193.016-22.385-.015-33.577.029-3.07.007-6.14.011-9.211a4.484,4.484,0,0,0-1.8-3.764,6.532,6.532,0,0,0-4.318-.809,9.14,9.14,0,0,1-.577,4.019,6.1,6.1,0,0,1-11.158,0,9.075,9.075,0,0,1-.577-4.021q-5.808-.038-11.621,0m-9.771,24.608c-1.016.521-2.027,1.06-3.068,1.538-.127,1.187-.06,2.383-.069,3.574a2.346,2.346,0,0,0,.74,1.937c.844.76,2.061.5,3.1.549,1.034-.054,2.253.213,3.1-.547a2.376,2.376,0,0,0,.738-1.939c-.009-1.089.042-2.182-.034-3.269a2.1,2.1,0,0,0-1.889-1.889,10.727,10.727,0,0,0-2.614.046m-16.932,2.086c-.011,1.135-.044,2.273,0,3.408a2.137,2.137,0,0,0,1.31,1.923,9.571,9.571,0,0,0,2.7.181c1.055-.019,2.348.178,3.1-.742.882-1.084.458-2.6.524-3.882A23.113,23.113,0,0,1,1394.429,1499.977Z" fill="#26786a"/>
    <path id="Path_2" data-name="Path 2" d="M1397.626,1467.476a12.479,12.479,0,0,1,5.845,0,3.1,3.1,0,0,1,1.692,2.9c0,1.471-.019,2.942,0,4.415,1.536.029,3.072-.014,4.61.009a3.065,3.065,0,0,1,2.712,1.688,12.492,12.492,0,0,1-.006,5.839,3.054,3.054,0,0,1-2.706,1.673c-1.538.019-3.076-.01-4.614.007-.015,1.538.008,3.076-.006,4.614a3.07,3.07,0,0,1-2.523,3c-1.072.125-2.158.029-3.236.065a3.4,3.4,0,0,1-2.548-.905,3.294,3.294,0,0,1-.9-2.349c-.005-1.473.019-2.946,0-4.417-1.536-.027-3.074.012-4.61-.009a3.062,3.062,0,0,1-2.711-1.686,12.482,12.482,0,0,1,.005-5.841,3.056,3.056,0,0,1,2.706-1.673c1.538-.019,3.076.01,4.614-.007.018-1.538-.011-3.076.008-4.612a3.05,3.05,0,0,1,1.67-2.708m.405,1.542a1.562,1.562,0,0,0-.547,1.355c.006,1.989-.007,3.98.01,5.968q-2.583-.013-5.168-.017a7.189,7.189,0,0,0-1.49.084,1.522,1.522,0,0,0-1.015,1.448q-.023,1.545,0,3.094a1.533,1.533,0,0,0,1.017,1.446,7.334,7.334,0,0,0,1.49.084c1.724-.006,3.448,0,5.17-.015-.027,1.923,0,3.847-.015,5.77a1.743,1.743,0,0,0,.454,1.457c.516.6,1.367.426,2.063.459a17.1,17.1,0,0,0,2.449-.062,1.457,1.457,0,0,0,1.166-1.47c.058-2.043-.04-4.087.029-6.129,2.043-.068,4.087.028,6.129-.029a1.461,1.461,0,0,0,1.5-1.335c.065-1.087.048-2.18.019-3.27a1.5,1.5,0,0,0-1.515-1.517c-2.042-.049-4.086.033-6.129-.023-.061-2.044.023-4.088-.027-6.13a1.474,1.474,0,0,0-1.168-1.473,16.3,16.3,0,0,0-2.45-.06C1399.341,1468.695,1398.558,1468.519,1398.031,1469.018Z" fill="#26786a"/>
    <path id="Path_3" data-name="Path 3" d="M1444.881,1487.05c.548-.907,1.685-.873,2.6-.694.334.13.539.454.794.694a4.369,4.369,0,0,1-.639.725,6.356,6.356,0,0,1-2.123,0A4.444,4.444,0,0,1,1444.881,1487.05Z" fill="#26786a"/>
    <path id="Path_4" data-name="Path 4" d="M1420.184,1491.741a24.258,24.258,0,0,1,3.546-.035.753.753,0,0,1,0,1.473,33.458,33.458,0,0,1-3.4,0A.762.762,0,0,1,1420.184,1491.741Z" fill="#26786a"/>
    <path id="Path_5" data-name="Path 5" d="M1427.086,1491.743a4.453,4.453,0,0,1,1.076-.073c3.837.021,7.677-.018,11.512.017a.762.762,0,0,1,.642,1.189c-.2.357-.659.324-1.01.337-3.968-.017-7.936.018-11.9-.015A.762.762,0,0,1,1427.086,1491.743Z" fill="#26786a"/>
    <path id="Path_6" data-name="Path 6" d="M1423.452,1496.393a24.464,24.464,0,0,1,4.52-.063,3.983,3.983,0,0,1,3.262,3.766c.008,1.034.016,2.069,0,3.1a3.968,3.968,0,0,1-3.816,3.816c-1.034.014-2.069.006-3.1,0a3.96,3.96,0,0,1-3.814-3.814c-.016-1.034-.012-2.069,0-3.1a4,4,0,0,1,2.949-3.7m.184,1.509a2.1,2.1,0,0,0-1.586,2.008c-.038,1.156-.038,2.317,0,3.473a2.126,2.126,0,0,0,1.308,1.925,9.717,9.717,0,0,0,2.7.181c1.015-.027,2.233.174,3.007-.645a2.831,2.831,0,0,0,.647-2.234c-.027-1.012.055-2.033-.066-3.041a2.143,2.143,0,0,0-2.228-1.751A28.24,28.24,0,0,0,1423.636,1497.9Z" fill="#26786a"/>
    <path id="Path_7" data-name="Path 7" d="M1437.434,1496.351a37.21,37.21,0,0,1,3.793-.071,3.993,3.993,0,0,1,3.822,4.211c-.084,1.32.2,2.7-.245,3.97a4,4,0,0,1-3.58,2.554c-1.034.006-2.066.008-3.1,0a3.969,3.969,0,0,1-3.817-3.816c-.009-1.034-.005-2.067,0-3.1a4,4,0,0,1,3.126-3.747m.01,1.549a2.08,2.08,0,0,0-1.477,1.371,13.082,13.082,0,0,0-.132,2.756c.021.915-.136,1.987.548,2.718a2.534,2.534,0,0,0,2.135.744c1.022-.018,2.05.04,3.072-.039a2.115,2.115,0,0,0,1.906-2.067c.027-1.214.052-2.435-.015-3.647a2.121,2.121,0,0,0-2.07-1.909A28.675,28.675,0,0,0,1437.444,1497.9Z" fill="#26786a"/>
    <path id="Path_8" data-name="Path 8" d="M1395.837,1510.2a26.761,26.761,0,0,1,4.332-.091,3.983,3.983,0,0,1,3.452,3.794c.008,1.1.017,2.2-.011,3.3a3.987,3.987,0,0,1-4.2,3.628c-1.366-.088-2.81.233-4.11-.3a3.991,3.991,0,0,1-2.414-3.519c-.006-1.034-.01-2.068,0-3.1a4,4,0,0,1,2.951-3.7m.184,1.505a2.117,2.117,0,0,0-1.588,2.012c-.034,1.156-.034,2.316,0,3.473a2.128,2.128,0,0,0,1.31,1.923,9.429,9.429,0,0,0,2.7.182c1.013-.03,2.232.18,3.007-.642a2.821,2.821,0,0,0,.644-2.236c-.028-1.015.06-2.033-.063-3.042a2.152,2.152,0,0,0-2.23-1.753A29.419,29.419,0,0,0,1396.021,1511.706Z" fill="#26786a"/>
    <path id="Path_9" data-name="Path 9" d="M1409.645,1510.2a24.537,24.537,0,0,1,4.52-.064,3.985,3.985,0,0,1,3.262,3.767c.007,1.033.015,2.069,0,3.1a3.97,3.97,0,0,1-3.817,3.817c-1.033.013-2.069.005-3.1,0a3.961,3.961,0,0,1-3.814-3.815c-.015-1.033-.011-2.069,0-3.1a4,4,0,0,1,2.95-3.7m.184,1.507a2.1,2.1,0,0,0-1.586,2.012c-.037,1.156-.039,2.316,0,3.472a2.126,2.126,0,0,0,1.308,1.924,9.679,9.679,0,0,0,2.7.18c1.012-.027,2.23.175,3.005-.644a2.837,2.837,0,0,0,.646-2.234c-.027-1.013.056-2.033-.065-3.04a2.146,2.146,0,0,0-2.229-1.753A28.726,28.726,0,0,0,1409.829,1511.708Z" fill="#26786a"/>
    <path id="Path_10" data-name="Path 10" d="M1423.627,1510.158a37.488,37.488,0,0,1,3.793-.071,3.993,3.993,0,0,1,3.822,4.212c-.085,1.317.2,2.7-.246,3.969a4,4,0,0,1-3.578,2.555c-1.034.005-2.067.007-3.1,0a3.969,3.969,0,0,1-3.816-3.817c-.01-1.033-.006-2.067,0-3.1a4,4,0,0,1,3.126-3.748m.009,1.55a2.084,2.084,0,0,0-1.476,1.371,13.081,13.081,0,0,0-.133,2.758c.021.914-.136,1.984.549,2.715a2.528,2.528,0,0,0,2.132.744c1.024-.017,2.05.04,3.072-.038a2.114,2.114,0,0,0,1.909-2.067c.026-1.216.051-2.436-.018-3.65a2.117,2.117,0,0,0-2.065-1.906A28.563,28.563,0,0,0,1423.636,1511.708Z" fill="#26786a"/>
  </g>
</svg>
