<svg xmlns="http://www.w3.org/2000/svg" width="71.064" height="68.934" viewBox="0 0 71.064 68.934">
  <path id="Path_66" data-name="Path 66" d="M1317.622,1807.683c0-.981.015-1.826-.005-2.673a1.189,1.189,0,0,1,1.148-1.4,1.175,1.175,0,0,0,1.122-1.276c.022-1.01.028-2.022,0-3.032a1.185,1.185,0,0,0-1.294-1.276q-7.992-.018-15.983,0a1.179,1.179,0,0,0-1.319,1.248c-.04,1.037-.027,2.076,0,3.114a1.173,1.173,0,0,0,.926,1.2c1.293.349,1.312.374,1.312,1.727q0,20.7.007,41.392a12.74,12.74,0,0,0,.147,2.039,7.231,7.231,0,0,0,6.57,5.987,6.873,6.873,0,0,0,7.08-5.177,36.359,36.359,0,0,0,.405-5.359c-1.313,0-2.425.007-3.538,0-.64-.005-1.129-.242-1.2-.959-.071-.679.377-1.12,1.176-1.134,1.136-.019,2.271-.005,3.39-.005v-6.524c-1.2,0-2.348.007-3.491,0a.966.966,0,0,1-1.067-.908.935.935,0,0,1,.744-1.11,3.585,3.585,0,0,1,.892-.077c.973-.009,1.945,0,2.915,0V1827c-1.162,0-2.252,0-3.344,0a1.082,1.082,0,0,1-1.188-.8c-.192-.72.3-1.288,1.145-1.3,1.136-.018,2.272-.005,3.392-.005v-6.53c-1.208,0-2.353.01-3.5,0a1.033,1.033,0,0,1-.15-2.058,5.6,5.6,0,0,1,.9-.031c.916,0,1.833,0,2.762,0v-6.481c-1.133,0-2.218.013-3.3,0-.836-.012-1.279-.4-1.279-1.059s.438-1.034,1.279-1.041c1.088-.01,2.173,0,3.353,0" transform="translate(-1262.054 -1798.017)" fill="#26786a"/>
  <g id="Group_50" data-name="Group 50" transform="translate(-1262.054 -1798.017)">
    <path id="Path_67" data-name="Path 67" d="M1262.21,1811.448a7.131,7.131,0,0,1,6.889-5.463q14.241,0,28.487,0c.016,1.158.025,2.315,0,3.472q-14.24,0-28.481,0a3.543,3.543,0,0,0-3.5,3.514q0,23.465,0,46.926a3.535,3.535,0,0,0,3.5,3.514q28.406.008,56.812,0a3.554,3.554,0,0,0,3.264-1.931,4.109,4.109,0,0,0,.381-2.183q0-23.162,0-46.323a7.586,7.586,0,0,0-.178-1.291c.023-.1.152-.366-.134-.092a3.429,3.429,0,0,0-3.183-2.136c-1.21-.023-2.42.015-3.628-.021.012-1.146.023-2.292,0-3.438.813-.049,1.625-.01,2.438-.022a8.608,8.608,0,0,1,4.207.686,7.24,7.24,0,0,1,3.835,4.5l.2-.05v50.717l-.15-.428a7.049,7.049,0,0,1-5.384,5.32c.024.055.07.165.094.22h-59.963l-.259-.072.241-.13a6.984,6.984,0,0,1-5.4-5.008l-.246.017v-50.7Z" fill="#26786a"/>
    <path id="Path_68" data-name="Path 68" d="M1276.389,1824.494a1.769,1.769,0,0,1,1.7-1.1q6.22,0,12.443,0a1.769,1.769,0,0,1,1.7,2.011,1.8,1.8,0,0,1-1.847,1.463c-4.152-.006-8.3,0-12.456-.005a2.139,2.139,0,0,1-.929-.292c.013.041.04.122.054.161l-.372-.095c.117-.039.234-.079.349-.121A1.61,1.61,0,0,1,1276.389,1824.494Z" fill="#26786a"/>
    <path id="Path_69" data-name="Path 69" d="M1276.448,1836.548a1.809,1.809,0,0,1,1.655-.971c5.339.006,7.126,0,12.464,0a1.735,1.735,0,1,1-.135,3.468c-5.345,0-7.14,0-12.485,0-.249-.012-.755-.018-.667-.388l-.133.148A1.706,1.706,0,0,1,1276.448,1836.548Z" fill="#26786a"/>
    <path id="Path_70" data-name="Path 70" d="M1277.046,1848.068a2.283,2.283,0,0,1,1.49-.31c6.954.016,9.627-.009,16.581.019a1.731,1.731,0,0,1,1.742,1.636,1.762,1.762,0,0,1-1.751,1.826c-7.1.012-9.918,0-17.014.006a1.944,1.944,0,0,1-1.165-.378c-.028.038-.087.113-.115.15.075-.379-.338-.532-.42-.862A1.706,1.706,0,0,1,1277.046,1848.068Z" fill="#26786a"/>
  </g>
</svg>
