<svg xmlns="http://www.w3.org/2000/svg" width="23.962" height="22.497" viewBox="0 0 23.962 22.497">
  <path id="Path_56" data-name="Path 56" d="M363.2,2325.934a4.029,4.029,0,0,0-1.255.455,17,17,0,0,0-2.322,1.416,34.726,34.726,0,0,0-5.428,4.95,57.437,57.437,0,0,0-4.641,5.915c-.684.948-1.281,1.957-1.928,2.931a40.091,40.091,0,0,0-3.962-4.781,3.917,3.917,0,0,0-.792-.673,2.172,2.172,0,0,0-1.936-.1,2.275,2.275,0,0,0-1.224,1.377,2.654,2.654,0,0,0,.977,2.641,24.432,24.432,0,0,1,2.378,2.352,43.536,43.536,0,0,1,4.346,5.736.6.6,0,0,0,.815.189c.213-.13.281-.384.385-.595a77.613,77.613,0,0,1,7.414-12.949,47.131,47.131,0,0,1,3.76-4.51q1.039-1.109,2.129-2.169a7.614,7.614,0,0,0,1.634-1.678.349.349,0,0,0-.312-.51A.235.235,0,0,0,363.2,2325.934Z" transform="translate(-339.621 -2325.93)" fill="#fff"/>
</svg>
