<svg xmlns="http://www.w3.org/2000/svg" width="37.745" height="40.267" viewBox="0 0 37.745 40.267">
  <g id="Group_71" data-name="Group 71" transform="translate(-1457.365 -1454.02)">
    <path id="Path_66" data-name="Path 66" d="M1463.2,1454.227a2.493,2.493,0,0,1,2.693.445c.61.571,1.185,1.179,1.743,1.8.066.1.221.2.135.338-.343.225-.728.375-1.08.585a18.221,18.221,0,0,0-2.771,1.947,22.446,22.446,0,0,0-4.122,4.784c-.357-.343-.659-.739-1-1.1a6.363,6.363,0,0,1-1.327-1.909,2.662,2.662,0,0,1,.151-1.838,3.271,3.271,0,0,1,.9-1.078q1.772-1.659,3.622-3.23A4.209,4.209,0,0,1,1463.2,1454.227Z" fill="#fff"/>
    <path id="Path_67" data-name="Path 67" d="M1487.622,1454.084a2.94,2.94,0,0,1,1.522.1,3.3,3.3,0,0,1,.955.624q1.983,1.631,3.859,3.387a3.381,3.381,0,0,1,.893,1.088,2.667,2.667,0,0,1,.15,1.842,6.356,6.356,0,0,1-1.325,1.906c-.345.356-.645.754-1,1.1a19.07,19.07,0,0,0-2.481-3.192,19.975,19.975,0,0,0-4.206-3.427c-.444-.265-.919-.471-1.367-.726a13.107,13.107,0,0,1,1.159-1.336A4.18,4.18,0,0,1,1487.622,1454.084Z" fill="#fff"/>
    <path id="Path_68" data-name="Path 68" d="M1470.369,1458.085a19.41,19.41,0,0,1,4.785-1.034c.965-.022,1.933-.017,2.9.03a17.676,17.676,0,0,1,11.983,6.3,17.872,17.872,0,0,1,3.634,7.258,18.807,18.807,0,0,1,.4,5.182,11.5,11.5,0,0,1-.292,2.353,18.139,18.139,0,0,1-3.044,6.885c-.408.574-.888,1.09-1.313,1.65a23.8,23.8,0,0,1,2.379,4.926,3,3,0,0,1,.084,1.886,1.106,1.106,0,0,1-.918.724,4.141,4.141,0,0,1-2.28-.606,47.8,47.8,0,0,1-4.511-3.068,17.509,17.509,0,0,1-7.311,1.714c-.735,0-1.471.011-2.2-.039a18.763,18.763,0,0,1-4.692-1.162c-.413-.152-.8-.38-1.216-.513a3.472,3.472,0,0,0-.565.378,33.313,33.313,0,0,1-4.153,2.768,4.678,4.678,0,0,1-1.744.57,1.3,1.3,0,0,1-1.113-.478,1.991,1.991,0,0,1-.254-1.409,8.667,8.667,0,0,1,.786-2.4,25.57,25.57,0,0,1,1.68-3.053c.209-.275-.13-.53-.278-.738a17.642,17.642,0,0,1,1.648-24.757,17.791,17.791,0,0,1,5.608-3.361m4.092,2.061a14.672,14.672,0,0,0-7.72,3.595,14.874,14.874,0,0,0-3.209,4.05,14.429,14.429,0,0,0-1.706,6.234,14.611,14.611,0,0,0,4.208,10.913,14.926,14.926,0,0,0,3.56,2.663,14.649,14.649,0,0,0,5.548,1.66,13.168,13.168,0,0,0,3.6-.109,15,15,0,0,0,8.173-4.216,14.809,14.809,0,0,0,4.094-8.331,23.685,23.685,0,0,0,0-3.614,13.4,13.4,0,0,0-1.64-5.252,14.491,14.491,0,0,0-3.283-4.113,14.921,14.921,0,0,0-7.05-3.4A20.207,20.207,0,0,0,1474.461,1460.146Z" fill="#fff"/>
    <path id="Path_69" data-name="Path 69" d="M1476.079,1463.323a.791.791,0,0,1,.963.206c.165.111.109.321.119.49,0,2.993-.011,5.988.008,8.981a1.392,1.392,0,0,0,.96.34c.918.035,1.837.033,2.755.041,1.391.061,2.786.012,4.178.082a1.641,1.641,0,0,1,.65.142,1.277,1.277,0,0,1,.609,1.356,1.234,1.234,0,0,1-.683.816,6.3,6.3,0,0,1-1.385.1c-2.093.02-4.187.007-6.277.09a1.578,1.578,0,0,0-.685.288,1.794,1.794,0,0,1-2.611-1.759,2,2,0,0,1,1.131-1.533c.011-2.928-.016-5.857.019-8.785C1475.886,1463.893,1475.789,1463.5,1476.079,1463.323Z" fill="#fff"/>
  </g>
</svg>
