<svg xmlns="http://www.w3.org/2000/svg" width="63.951" height="52.647" viewBox="0 0 63.951 52.647">
  <path id="Path_32" data-name="Path 32" d="M1262.344,3370.133a13.337,13.337,0,1,0-25.192,8.213,13.051,13.051,0,0,0,2.567,3.789.5.5,0,0,1,.2.43c-.071,1.687-.182,3.373-.251,5.061a1.018,1.018,0,0,0,.595,1.035,1.2,1.2,0,0,0,1.052-.108c1.543-.789,3.1-1.553,4.641-2.344a1.61,1.61,0,0,1,.982-.26,12.422,12.422,0,0,0,8.414-1.308,14,14,0,0,0,6.032-6.324l.063-.134a13.093,13.093,0,0,0,.9-8.05m-10.325,6.276c-2.194.006-4.386,0-6.579.007a1.051,1.051,0,0,1-1.106-.724,1.008,1.008,0,0,1,.643-1.247,2.385,2.385,0,0,1,.671-.057c2.124,0,4.249,0,6.371,0a1.011,1.011,0,1,1,0,2.017m2.453-5.619a1.155,1.155,0,0,1-.941.35c-2.73,0-5.462,0-8.191,0a1.017,1.017,0,0,1-1.042-.883,1,1,0,0,1,.675-1.079,2.408,2.408,0,0,1,.575-.056q3.888.006,7.775,0a1.459,1.459,0,0,1,1.069.267,1.01,1.01,0,0,1,.08,1.41" transform="translate(-1198.659 -3359.443)" fill="#fff"/>
  <path id="Path_33" data-name="Path 33" d="M1208.408,3376.731v24.216a2.58,2.58,0,0,0,2.58,2.579h38.688a2.578,2.578,0,0,0,2.579-2.579v-12.963a13.448,13.448,0,0,1-3.059.335,20.2,20.2,0,0,1-2.665-.188c-.04.02-.079.042-.119.063-.826.423-1.656.839-2.486,1.256-.721.361-1.44.721-2.158,1.088a3.14,3.14,0,0,1-1.466.379,2.6,2.6,0,0,1-1.1-.241,2.738,2.738,0,0,1-1.594-2.726c.035-.845.079-1.691.125-2.536.035-.656.07-1.312.1-1.967a14.718,14.718,0,0,1-2.6-3.964,15.624,15.624,0,0,1-1.279-5.331h-22.965a2.58,2.58,0,0,0-2.58,2.579m14.556,3.685h.007a8.747,8.747,0,1,1-.007,17.495h-.007a8.747,8.747,0,1,1,.007-17.495" transform="translate(-1198.659 -3359.443)" fill="#fff"/>
  <path id="Path_34" data-name="Path 34" d="M1261.146,3405.471h-4.8v-19.158c-.172.1-.338.207-.513.3-.433.231-.855.429-1.274.609v18.249h-17.58a.919.919,0,0,0-.657.311l-.919.986a3.641,3.641,0,0,1-2.674,1.159h-4.789a3.623,3.623,0,0,1-2.675-1.148l-.919-1.009a.9.9,0,0,0-.657-.3h-17.58V3375.6a3.632,3.632,0,0,1,3.65-3.616h24.209a14.855,14.855,0,0,1,.264-1.786h-24.473a5.423,5.423,0,0,0-5.437,5.4v29.875h-4.8a.906.906,0,0,0-.859.94v.277a5.382,5.382,0,0,0,5.388,5.4h52.57a5.383,5.383,0,0,0,5.387-5.4v-.277a.906.906,0,0,0-.858-.94" transform="translate(-1198.659 -3359.443)" fill="#fff"/>
  <path id="Path_35" data-name="Path 35" d="M1222.959,3396.183h.005a7.02,7.02,0,1,0,.006-14.04h-.006a7.02,7.02,0,0,0-.005,14.04m-4.829-8.2a.867.867,0,0,1,.863-.867l1.957,0,0-1.953a.862.862,0,0,1,.864-.859h2.3a.859.859,0,0,1,.862.862v1.956l1.956,0a.864.864,0,0,1,.864.864l0,2.28a.844.844,0,0,1-.863.842h0l-1.956.02,0,1.967a.942.942,0,0,1-.252.643.893.893,0,0,1-.611.285h0l-2.3-.028a.874.874,0,0,1-.864-.877v-1.965l-1.957,0a.866.866,0,0,1-.863-.867Z" transform="translate(-1198.659 -3359.443)" fill="#fff"/>
</svg>
