<svg xmlns="http://www.w3.org/2000/svg" width="85.841" height="70.667" viewBox="0 0 85.841 70.667">
  <g id="Group_49" data-name="Group 49" transform="translate(-508.734 -2244.62)">
    <path id="Path_62" data-name="Path 62" d="M594.218,2258.969a17.9,17.9,0,1,0-33.816,11.024,17.542,17.542,0,0,0,3.446,5.086.664.664,0,0,1,.263.579c-.093,2.263-.242,4.526-.335,6.791a1.368,1.368,0,0,0,.8,1.391,1.6,1.6,0,0,0,1.412-.147c2.072-1.058,4.16-2.084,6.228-3.146a2.178,2.178,0,0,1,1.319-.348c5.155.716,8.162-.091,11.295-1.756a18.786,18.786,0,0,0,8.1-8.489l.084-.179A17.586,17.586,0,0,0,594.218,2258.969Zm-13.86,8.424c-2.943.008-5.888-.005-8.831.01a1.411,1.411,0,0,1-1.485-.972,1.356,1.356,0,0,1,.864-1.675,3.311,3.311,0,0,1,.9-.075c2.851,0,5.7.005,8.552.005a1.356,1.356,0,1,1,0,2.707Zm3.293-7.541a1.549,1.549,0,0,1-1.262.469c-3.666-.006-7.332,0-11-.007a1.366,1.366,0,0,1-1.4-1.185,1.339,1.339,0,0,1,.9-1.448,3.237,3.237,0,0,1,.773-.076q5.219.009,10.436,0a1.959,1.959,0,0,1,1.436.359A1.356,1.356,0,0,1,583.651,2259.852Z" fill="#26786a"/>
    <g id="Group_48" data-name="Group 48">
      <path id="Path_63" data-name="Path 63" d="M521.82,2267.826v32.505a3.463,3.463,0,0,0,3.463,3.462h51.93a3.462,3.462,0,0,0,3.462-3.462v-17.4a18.071,18.071,0,0,1-4.107.45,27.163,27.163,0,0,1-3.577-.253c-.053.026-.106.056-.16.083-1.108.569-2.222,1.128-3.336,1.687q-1.45.726-2.9,1.461a4.211,4.211,0,0,1-1.968.509,3.487,3.487,0,0,1-1.483-.324,3.675,3.675,0,0,1-2.139-3.659c.047-1.135.107-2.269.168-3.4.047-.881.094-1.762.134-2.642a19.73,19.73,0,0,1-3.486-5.32,20.965,20.965,0,0,1-1.718-7.155H525.283A3.463,3.463,0,0,0,521.82,2267.826Zm19.537,4.946h.01a11.742,11.742,0,0,1-.01,23.484h-.008a11.742,11.742,0,0,1,.008-23.484Z" fill="#26786a"/>
      <path id="Path_64" data-name="Path 64" d="M592.609,2306.4h-6.446v-25.716c-.23.134-.453.278-.688.4-.582.309-1.148.574-1.71.816v24.5h-23.6a1.226,1.226,0,0,0-.882.417l-1.233,1.323a4.878,4.878,0,0,1-3.589,1.556h-6.43a4.858,4.858,0,0,1-3.588-1.541l-1.234-1.354a1.211,1.211,0,0,0-.882-.4h-23.6v-40.1a4.879,4.879,0,0,1,4.9-4.854h32.5a20.5,20.5,0,0,1,.354-2.4h-32.85a7.277,7.277,0,0,0-7.3,7.251v40.1h-6.447a1.214,1.214,0,0,0-1.152,1.26v.372a7.223,7.223,0,0,0,7.231,7.251H586.53a7.223,7.223,0,0,0,7.231-7.251v-.372A1.214,1.214,0,0,0,592.609,2306.4Z" fill="#26786a"/>
      <path id="Path_65" data-name="Path 65" d="M541.351,2293.936h.006a9.422,9.422,0,1,0,.008-18.845h-.008a9.422,9.422,0,0,0-.006,18.845Zm-6.483-11.012a1.165,1.165,0,0,1,1.16-1.165l2.627,0,0-2.621a1.154,1.154,0,0,1,1.16-1.153h3.089a1.154,1.154,0,0,1,1.159,1.157l0,2.626,2.626,0a1.159,1.159,0,0,1,1.16,1.159l0,3.061a1.134,1.134,0,0,1-1.159,1.129h0l-2.626.028,0,2.641a1.264,1.264,0,0,1-.341.863,1.2,1.2,0,0,1-.819.382h0l-3.09-.038a1.175,1.175,0,0,1-1.159-1.178l0-2.636-2.627-.006a1.161,1.161,0,0,1-1.158-1.163Z" fill="#26786a"/>
    </g>
  </g>
</svg>
