<svg xmlns="http://www.w3.org/2000/svg" width="40.711" height="26.925" viewBox="0 0 40.711 26.925">
  <g id="Group_67" data-name="Group 67" transform="translate(-282.394 -1036.443)">
    <g id="Group_60" data-name="Group 60">
      <path id="Path_61" data-name="Path 61" d="M322.553,1059.115h-3.086v-19.2a3.485,3.485,0,0,0-3.494-3.472H289.526a3.484,3.484,0,0,0-3.493,3.472v19.2h-3.087a.582.582,0,0,0-.552.6v.177a3.459,3.459,0,0,0,3.463,3.472h33.785a3.459,3.459,0,0,0,3.463-3.472v-.177A.582.582,0,0,0,322.553,1059.115Zm-4.234,0h-11.3a.587.587,0,0,0-.422.2l-.591.633a2.332,2.332,0,0,1-1.718.745h-3.078a2.327,2.327,0,0,1-1.719-.738l-.59-.648a.582.582,0,0,0-.422-.192h-11.3v-19.2a2.336,2.336,0,0,1,2.346-2.324h26.447a2.335,2.335,0,0,1,2.346,2.324Z" fill="#fff"/>
    </g>
    <g id="Group_61" data-name="Group 61">
      <path id="Path_62" data-name="Path 62" d="M321.957,1059.9a2.308,2.308,0,0,1-2.314,2.324H285.857a2.31,2.31,0,0,1-2.315-2.324v.367h14.686l.42.456a3.493,3.493,0,0,0,2.563,1.122h3.078a3.491,3.491,0,0,0,2.562-1.122l.42-.456h14.686Z" fill="#fff"/>
    </g>
    <g id="Group_66" data-name="Group 66">
      <g id="Group_64" data-name="Group 64">
        <g id="Group_62" data-name="Group 62">
          <path id="Path_63" data-name="Path 63" d="M295.887,1044.123h0a4.511,4.511,0,1,0,0,9.023h0a4.511,4.511,0,1,0,0-9.023Zm3.1,5.22a.541.541,0,0,1-.555.54h0l-1.258.014v1.264a.6.6,0,0,1-.163.413.57.57,0,0,1-.392.183h0l-1.479-.018a.563.563,0,0,1-.555-.564v-1.262l-1.258,0a.556.556,0,0,1-.554-.556v-1.481a.558.558,0,0,1,.555-.558l1.258,0v-1.255a.553.553,0,0,1,.556-.552h1.479a.555.555,0,0,1,.555.554v1.257h1.257a.556.556,0,0,1,.556.555Z" fill="#fff"/>
        </g>
        <g id="Group_63" data-name="Group 63">
          <path id="Path_64" data-name="Path 64" d="M315.182,1038.987H290.318a1.657,1.657,0,0,0-1.658,1.657v15.563a1.658,1.658,0,0,0,1.658,1.658h24.864a1.657,1.657,0,0,0,1.657-1.658v-15.563A1.657,1.657,0,0,0,315.182,1038.987Zm-19.3,15.269h0a5.622,5.622,0,0,1,0-11.244h0a5.622,5.622,0,0,1,0,11.244Zm18.041-6.131v3.134a4.026,4.026,0,1,1-8.051,0v-1.723h-2.514a.558.558,0,0,1-.546-.461l-1.091-6.053a.533.533,0,0,1,.546-.634H303.3v-.278a.555.555,0,0,1,1.111,0v1.388a.555.555,0,0,1-1.111,0h-.373l.891,4.928h5.238l.891-4.928h-.331a.555.555,0,0,1-1.11,0v-1.388a.555.555,0,0,1,1.11,0v.278h.995a.542.542,0,0,1,.426.186.528.528,0,0,1,.121.441l-1.092,6.06a.558.558,0,0,1-.546.461h-2.541v1.723a2.915,2.915,0,0,0,5.83,0v-3.1a1.917,1.917,0,1,1,1.11-.033Z" fill="#fff"/>
        </g>
      </g>
      <g id="Group_65" data-name="Group 65">
        <path id="Path_65" data-name="Path 65" d="M313.673,1045.54a.836.836,0,0,0-.836.836h0a.835.835,0,1,0,.835-.836Z" fill="#fff"/>
      </g>
    </g>
  </g>
</svg>
