<svg xmlns="http://www.w3.org/2000/svg" width="39.375" height="28.546" viewBox="0 0 39.375 28.546">
  <path id="Path_70" data-name="Path 70" d="M741.235,1462.059a1.644,1.644,0,0,1,1.667-1.628q18-.015,36-.005a1.648,1.648,0,0,1,1.7,1.634q0,12.63,0,25.258a1.7,1.7,0,0,1-1.285,1.636c-8.466.031-16.933,0-25.4.014-3.806-.011-7.615.02-11.422-.017a1.706,1.706,0,0,1-1.263-1.526q-.009-12.683,0-25.366m5.907,2.236c4.547,3.957,9.076,7.937,13.622,11.895.11.142.278.051.375-.054,1.842-1.608,3.677-3.226,5.533-4.82,2.637-2.362,5.355-4.635,7.972-7.018q-13.75-.031-27.5,0m-2.672,1.924q-.028,8.937,0,17.872l.155-.158q4.968-4.437,9.945-8.863c-1.865-1.654-3.761-3.273-5.626-4.927-1.5-1.3-3-2.6-4.476-3.924m28.486,3.866c-1.882,1.632-3.741,3.293-5.639,4.908,3.326,3.027,6.718,5.982,10.054,9q.041-8.895,0-17.791c-1.438,1.333-2.944,2.589-4.415,3.886m-10.966,9.581a1.6,1.6,0,0,1-2.093.045c-.892-.759-1.77-1.534-2.643-2.314-.1-.094-.286-.2-.4-.058-3.094,2.781-6.223,5.522-9.3,8.318.468.024.937.016,1.407.018,1.117,0,2.235-.005,3.354,0,1.655-.007,3.312,0,4.968,0q1.812-.006,3.625,0,5.908-.006,11.818,0a9.757,9.757,0,0,1,1.519.051l.081-.151c-3.162-2.8-6.3-5.627-9.466-8.422Q763.437,1478.422,761.99,1479.666Z" transform="translate(-741.234 -1460.424)" fill="#fefefe"/>
</svg>
 