<svg xmlns="http://www.w3.org/2000/svg" width="82.881" height="68.528" viewBox="0 0 82.881 68.528">
  <g id="Group_28" data-name="Group 28" transform="translate(-1377.649 -1857.929)">
    <path id="Path_66" data-name="Path 66" d="M1427.006,1905.963a9,9,0,0,0-2.017-.227,12.344,12.344,0,0,0-3.3.5,7.891,7.891,0,0,1-5.2,0,12.4,12.4,0,0,0-3.3-.5,8.944,8.944,0,0,0-2.023.229,7.323,7.323,0,0,0-5.546,6.982c0,6.392,8.024,13.508,13.461,13.508s13.465-7.116,13.465-13.508A7.325,7.325,0,0,0,1427.006,1905.963Zm1.39,6.985c0,4.207-6.233,9.349-9.309,9.349s-9.3-5.142-9.3-9.35a3.163,3.163,0,0,1,2.323-2.932,5.252,5.252,0,0,1,1.2-.146,7.893,7.893,0,0,1,2.1.379,11.861,11.861,0,0,0,7.389,0,6.305,6.305,0,0,1,3.281-.231A3.164,3.164,0,0,1,1428.4,1912.948Z" fill="#26786a"/>
    <path id="Path_67" data-name="Path 67" d="M1460.176,1858.851a2.078,2.078,0,0,0-3.766.759c-4,20.342-25.444,36.851-37.321,36.851s-33.321-16.51-37.32-36.854a2.08,2.08,0,1,0-4.081.8,50.148,50.148,0,0,0,10.448,21.607l.089.109.033.135c4.359,17.808,5.488,37.849,5.533,38.693a2.1,2.1,0,0,0,2.18,1.971h0a2.085,2.085,0,0,0,1.972-2.181,254.748,254.748,0,0,0-3.75-30.782l-.338-1.781,1.364,1.194c7.92,6.936,17.067,11.245,23.869,11.245s15.952-4.31,23.877-11.248l1.364-1.195-.337,1.782a254.873,254.873,0,0,0-3.758,30.784,2.088,2.088,0,0,0,1.919,2.181l.162,0a2.075,2.075,0,0,0,2.07-1.975c.047-.846,1.178-20.911,5.528-38.684l.034-.137.088-.109a50.155,50.155,0,0,0,10.454-21.613A2.059,2.059,0,0,0,1460.176,1858.851Z" fill="#26786a"/>
  </g>
</svg>
