<svg xmlns="http://www.w3.org/2000/svg" width="17.849" height="54.308" viewBox="0 0 17.849 54.308">
  <path id="Path_57" data-name="Path 57" d="M640.7,4498.186c0-.938.014-1.748,0-2.559a1.137,1.137,0,0,1,1.1-1.34,1.126,1.126,0,0,0,1.075-1.221c.021-.968.027-1.937,0-2.9a1.135,1.135,0,0,0-1.239-1.222q-7.651-.018-15.3,0a1.129,1.129,0,0,0-1.264,1.2c-.038.992-.025,1.988,0,2.981a1.123,1.123,0,0,0,.886,1.149c1.238.335,1.256.358,1.256,1.654q0,19.815.007,39.629a12.122,12.122,0,0,0,.141,1.952,6.924,6.924,0,0,0,6.29,5.733,6.583,6.583,0,0,0,6.779-4.958,34.957,34.957,0,0,0,.388-5.13c-1.258,0-2.323.006-3.388,0-.613,0-1.081-.232-1.151-.918-.068-.65.361-1.072,1.126-1.086,1.088-.018,2.175,0,3.246,0v-6.246c-1.152,0-2.248.006-3.342,0a.925.925,0,0,1-1.022-.869.9.9,0,0,1,.712-1.063,3.416,3.416,0,0,1,.855-.073c.931-.009,1.862,0,2.79,0v-6.2c-1.112,0-2.156,0-3.2,0a1.036,1.036,0,0,1-1.137-.765c-.184-.689.286-1.233,1.1-1.248,1.088-.016,2.176,0,3.248,0v-6.252c-1.157,0-2.253.01-3.347,0a.989.989,0,0,1-.143-1.97,5.361,5.361,0,0,1,.86-.03c.878,0,1.755,0,2.645,0V4500.2c-1.084,0-2.123.012-3.163,0-.8-.013-1.224-.38-1.224-1.015s.419-.99,1.224-1c1.041-.01,2.08,0,3.21,0" transform="translate(-625.041 -4488.933)" fill="#fff"/>
</svg>
      