<svg xmlns="http://www.w3.org/2000/svg" width="32" height="26.5" viewBox="0 0 32 26.5">
  <g id="Group_40" data-name="Group 40" transform="translate(-1616 -57.5)">
    <path id="Path_37" data-name="Path 37" d="M1616,71a2,2,0,0,1,2-2h28a2,2,0,1,1,0,4h-28a2,2,0,0,1-2-2Z" fill="#26786a"/>
    <path id="Path_38" data-name="Path 38" d="M1616,59.5a2,2,0,0,1,2-2h28a2,2,0,1,1,0,4h-28a2,2,0,0,1-2-2Z" fill="#26786a"/>
    <path id="Path_39" data-name="Path 39" d="M1616,82a2,2,0,0,1,2-2h28a2,2,0,1,1,0,4h-28a2,2,0,0,1-2-2Z" fill="#26786a"/>
  </g>
</svg>
