<svg xmlns="http://www.w3.org/2000/svg" width="68.029" height="68.043" viewBox="0 0 68.029 68.043">
  <g id="Group_6" data-name="Group 6" transform="translate(-513.004 -5253.197)">
    <path id="Path_12" data-name="Path 12" d="M547.593,5272.236c1.923,0,3.488-1.946,3.488-4.34s-1.565-4.338-3.488-4.338-3.489,1.946-3.489,4.338,1.565,4.34,3.489,4.34" fill="#26786a"/>
    <path id="Path_13" data-name="Path 13" d="M534.807,5282.468l0,.05a5.39,5.39,0,0,0,3.1,5.129l.025.013a7.9,7.9,0,0,1,3.578,3.445l.014.027a5.733,5.733,0,0,0,5.4,2.989l.048,0c.152-.009.3-.011.455-.011a8.232,8.232,0,0,1,4.42,1.279,5.941,5.941,0,0,0,6.3,0,8.257,8.257,0,0,1,4.875-1.268l.048,0a5.727,5.727,0,0,0,5.4-2.987l.012-.02a7.91,7.91,0,0,1,3.586-3.455l.02-.01a5.39,5.39,0,0,0,3.1-5.131l0-.047a7.66,7.66,0,0,1,1.338-4.761,5.249,5.249,0,0,0,0-5.931,7.671,7.671,0,0,1-1.339-4.763l0-.047a5.4,5.4,0,0,0-3.1-5.131l-.023-.012a7.912,7.912,0,0,1-3.581-3.446l-.017-.033a5.732,5.732,0,0,0-5.4-2.983l-.049,0a8.255,8.255,0,0,1-4.873-1.269,5.951,5.951,0,0,0-6.3,0,8.251,8.251,0,0,1-4.875,1.268l-.047,0a5.729,5.729,0,0,0-5.4,2.988l-.014.024a7.924,7.924,0,0,1-3.585,3.452l-.023.011a5.389,5.389,0,0,0-3.095,5.128l0,.047a7.689,7.689,0,0,1-1.338,4.764,5.244,5.244,0,0,0,0,5.93,7.676,7.676,0,0,1,1.338,4.76m33.478-.879c0,3.717-2.643,6.74-5.892,6.74s-5.891-3.023-5.891-6.74,2.642-6.742,5.891-6.742,5.892,3.025,5.892,6.743Zm-6.18-20.508a1.2,1.2,0,0,1,2.039,1.272l-16.262,26.053a1.2,1.2,0,1,1-2.038-1.273Zm-14.512.075c3.249,0,5.891,3.023,5.891,6.74s-2.642,6.742-5.891,6.742-5.892-3.023-5.892-6.742,2.643-6.74,5.892-6.74" fill="#26786a"/>
    <path id="Path_14" data-name="Path 14" d="M558.905,5281.59c0,2.392,1.563,4.339,3.487,4.339s3.489-1.947,3.489-4.339-1.564-4.34-3.489-4.34-3.487,1.945-3.487,4.34" fill="#26786a"/>
    <path id="Path_15" data-name="Path 15" d="M575.938,5303.9c-.009,0-.019.009-.026.014l-11.15,5.267a8.7,8.7,0,0,1,.154,1.876,1.2,1.2,0,0,1-1.2,1.168h-.036l-16.318-.449a1.2,1.2,0,1,1,.067-2.4l15,.414a6.189,6.189,0,0,0-5.928-5.146l-9.927-.274a13.081,13.081,0,0,1-5.626-1.452l-1.009-.524a15.261,15.261,0,0,0-15.578.878l-.4,14.442,1.706-.914a7.423,7.423,0,0,1,5.532-.6l16.846,4.728a15.734,15.734,0,0,0,9.642-1.078l23.34-15.1a4.365,4.365,0,0,0-5.1-.845" fill="#26786a"/>
    <rect id="Rectangle_7" data-name="Rectangle 7" width="21.495" height="8.488" transform="translate(513.004 5320.218) rotate(-88.423)" fill="#26786a"/>
  </g>
</svg>
