<svg xmlns="http://www.w3.org/2000/svg" width="87.733" height="79.043" viewBox="0 0 87.733 79.043">
  <g id="Group_16" data-name="Group 16" transform="translate(-1380.247 -2388.02)">
    <path id="Path_56" data-name="Path 56" d="M1388.163,2414.845a1.864,1.864,0,0,0,1.558-1.9,16.442,16.442,0,0,1,4.7-10.684,15.662,15.662,0,0,1,10.866-4.768l.2-.009a2.263,2.263,0,0,0,1.094-.228,1.822,1.822,0,0,0,.937-1.865,1.842,1.842,0,0,0-1.752-1.55,17.857,17.857,0,0,0-2.673.166h0a19.582,19.582,0,0,0-12.357,6.871,19.982,19.982,0,0,0-4.669,12.015,1.781,1.781,0,0,0,.591,1.5,1.8,1.8,0,0,0,1.2.485A1.532,1.532,0,0,0,1388.163,2414.845Z" fill="#26786a"/>
    <path id="Path_57" data-name="Path 57" d="M1438.878,2411.29l-.284.032a10.7,10.7,0,0,0-5.415,2.477,10.481,10.481,0,0,0-3.637,7.966,1.791,1.791,0,0,0,1.243,1.707,1.64,1.64,0,0,0,.567.1,1.832,1.832,0,0,0,1.07-.356,1.751,1.751,0,0,0,.753-1.45,7.005,7.005,0,0,1,1.885-4.717,6.928,6.928,0,0,1,4.989-2.186,1.826,1.826,0,0,0,1.541-2.8C1440.968,2411.044,1439.76,2411.186,1438.878,2411.29Z" fill="#26786a"/>
    <path id="Path_58" data-name="Path 58" d="M1389.794,2421.952a1.811,1.811,0,0,0,.989-2.157c-.17-.56-.358-1.117-.55-1.671a1.815,1.815,0,0,0-3.466,1.027,11.3,11.3,0,0,0,.635,1.927,1.747,1.747,0,0,0,1.01.926,1.881,1.881,0,0,0,.645.115A1.649,1.649,0,0,0,1389.794,2421.952Z" fill="#26786a"/>
    <path id="Path_59" data-name="Path 59" d="M1467.977,2416.2a10.7,10.7,0,0,0-3.276-7.89,11.61,11.61,0,0,0,1.807-6.768,11.235,11.235,0,0,0-3.123-7.148,11.06,11.06,0,0,0-6.768-3.387,11.9,11.9,0,0,0-4.51.366,10.522,10.522,0,0,0-8.649-3.3,11.087,11.087,0,0,0-4.857,1.688,10.52,10.52,0,0,0-15.653,5.114,25.145,25.145,0,0,0-28.542-4.17,25.779,25.779,0,0,0-11.478,11.622,26.531,26.531,0,0,0-2.681,10.987v.923a26.259,26.259,0,0,0,6.37,16.611c1.068,1.2,2.218,2.344,3.33,3.454.628.628,1.257,1.255,1.878,1.9l29.639,29.982a2.582,2.582,0,0,0,3.111.572,2.634,2.634,0,0,0,1.041-1.029,7.836,7.836,0,0,0,3.172,1.239,7.217,7.217,0,0,0,1.162.093,7.569,7.569,0,0,0,5.584-2.481,7.783,7.783,0,0,0,2-4.767,10.595,10.595,0,0,0,10.14-10.135,10.822,10.822,0,0,0,6.293-2.412,10.979,10.979,0,0,1,8.892-10.313,10.556,10.556,0,0,0,3.648-8.393,10.927,10.927,0,0,0-1.6-5.2,11.043,11.043,0,0,0,3.063-6.778Zm-8.966,6.418-.118.027a2.2,2.2,0,0,0-1.422.748,1.784,1.784,0,0,0-.335,1.554,1.752,1.752,0,0,0,.968,1.209,2.5,2.5,0,0,0,1.807.008l.218-.055a9.429,9.429,0,0,0,1.427-.51c.1-.042.2-.085.3-.126a6.348,6.348,0,0,1,1.011,3.442,6.863,6.863,0,0,1-13.056,3.046,9.081,9.081,0,0,0,4.8-3.226,1.747,1.747,0,0,0,.27-1.394,1.766,1.766,0,0,0-.822-1.166,1.83,1.83,0,0,0-2.4.431,5.453,5.453,0,0,1-7.6.837,1.8,1.8,0,0,0-1.408-.385,1.753,1.753,0,0,0-1.212.727,1.823,1.823,0,0,0,.25,2.415,9.17,9.17,0,0,0,4.29,1.951,10.429,10.429,0,0,0,8.159,7.183,6.578,6.578,0,0,1-1.7,4.352,6.912,6.912,0,0,1-5.293,2.329,10.783,10.783,0,0,0-5.35-6.156,9.073,9.073,0,0,0,1.489-5.4,1.826,1.826,0,0,0-2.385-1.394,1.915,1.915,0,0,0-1.241,1.96,5.436,5.436,0,0,1-4.4,5.086,4.571,4.571,0,0,1-.636.071,2.205,2.205,0,0,0-1.793.706,1.827,1.827,0,0,0,1.1,2.936,8.666,8.666,0,0,0,4.837-1.183,6.851,6.851,0,0,1-.469,13.415,7.048,7.048,0,0,1-4.913-1.019,1.819,1.819,0,0,0-2.418.3,1.782,1.782,0,0,0-.44,1.342,1.761,1.761,0,0,0,.644,1.239,10.374,10.374,0,0,0,2.708,1.368,4.155,4.155,0,0,1-.774,2.5,3.975,3.975,0,0,1-7.177-2.316q-.006-17.49,0-34.978V2399.5a9.067,9.067,0,0,1,.255-2.792,6.884,6.884,0,0,1,6.637-5.038,6.45,6.45,0,0,1,3.057.748,10.593,10.593,0,0,0-1.885,4.6,5.67,5.67,0,0,0-2.871,1.78,1.753,1.753,0,0,0-.207,1.672,1.772,1.772,0,0,0,1.255,1.137,1.965,1.965,0,0,0,1.859-.58,2.579,2.579,0,0,1,3.2-.121c.08.057.158.12.236.183a2.081,2.081,0,0,0,1.016.537,1.827,1.827,0,0,0,2.095-1.352,1.847,1.847,0,0,0-.429-1.658,6,6,0,0,0-2.457-1.515,7.034,7.034,0,0,1,3.1-4.387,6.833,6.833,0,0,1,6.71-.289,6.93,6.93,0,0,1,3.705,5.238c.022.172.033.347.044.521a6.781,6.781,0,0,0,.083.793,1.8,1.8,0,0,0,2.069,1.366,1.846,1.846,0,0,0,1.522-1.847,10.5,10.5,0,0,0-.75-3.83,7.585,7.585,0,0,1,8.689,7.562,7.618,7.618,0,0,1-1.235,4.064,10.623,10.623,0,0,0-8.919.256,7.278,7.278,0,0,0-4.184-1.106,1.827,1.827,0,0,0-1.244,2.878,2.127,2.127,0,0,0,1.779.777,3.583,3.583,0,0,1,.772.122,3.98,3.98,0,0,1,2.884,3.7,1.884,1.884,0,0,0,.6,1.47,1.724,1.724,0,0,0,1.393.473,1.821,1.821,0,0,0,1.651-1.727,7.172,7.172,0,0,0-.927-3.691,6.814,6.814,0,0,1,8.374,9.067v0A6.85,6.85,0,0,1,1459.011,2422.621Zm-75.1-8.666a22.235,22.235,0,0,1,4.7-13.841,21.575,21.575,0,0,1,30.44-3.819,28.223,28.223,0,0,1,2.86,2.659l.375.381q.016,24.879.006,49.755l0,12.711c-2.835-2.823-5.678-5.708-8.435-8.505q-2.918-2.958-5.841-5.907l-14.271-14.44-.267.263-4.826-5.03h0l.29-.238A22.165,22.165,0,0,1,1383.909,2413.955Z" fill="#26786a"/>
  </g>
</svg>
