<svg xmlns="http://www.w3.org/2000/svg" width="81.239" height="78.214" viewBox="0 0 81.239 78.214">
  <g id="Group_14" data-name="Group 14" transform="translate(-392.474 -2387.892)">
    <path id="Path_51" data-name="Path 51" d="M410.1,2388.832a22.023,22.023,0,0,1,15.071.869,24.128,24.128,0,0,1,7.915,5.724,22.756,22.756,0,0,1,13.328-7.279,23.21,23.21,0,0,1,19.45,6.409,26.256,26.256,0,0,1,7.826,18.232c.242,5.873-1.762,11.573-4.425,16.718-4.807,9.033-11.6,16.868-19.047,23.821a90.817,90.817,0,0,1-17.132,12.78c-8.677-4.889-16.274-11.508-23.093-18.714a84.98,84.98,0,0,1-12.788-17.339h4.49a97.962,97.962,0,0,0,20.871,23.882,83.992,83.992,0,0,0,10.52,7.646,102.509,102.509,0,0,0,24.25-21.457c4.643-5.689,8.88-11.9,11.209-18.913a23.985,23.985,0,0,0-.149-15.653,20.622,20.622,0,0,0-13.88-13.11,18.1,18.1,0,0,0-16.377,3.59c-1.157.881-1.988,2.145-3.245,2.9a3.984,3.984,0,0,1-4.9-1.031,18.274,18.274,0,0,0-12.986-6.076,19.586,19.586,0,0,0-15.776,7.513,23.322,23.322,0,0,0-4.05,20.365h-4.022a27.614,27.614,0,0,1,2.774-19.522A24.309,24.309,0,0,1,410.1,2388.832Z" fill="#26786a"/>
    <path id="Path_52" data-name="Path 52" d="M424.807,2406.4a1.946,1.946,0,0,1,3.662.322c2.053,8.85,4.042,17.714,6.083,26.568,1.69-6.076,3.3-12.175,4.977-18.259a1.982,1.982,0,0,1,2.367-1.593c.816.126,1.234.9,1.625,1.536,1.544,2.7,3.13,5.371,4.685,8.064,1.7.031,3.406.019,5.11.015a4.041,4.041,0,0,1,5.352-1.762,3.909,3.909,0,0,1,.759,6.375A4,4,0,0,1,453.7,2427c-2.287-.039-4.574.038-6.857-.027-.805,0-1.337-.705-1.682-1.345-1-1.77-2.061-3.5-3.045-5.271-1.832,6.953-3.77,13.875-5.62,20.825-.215.774-.43,1.724-1.288,2.023a1.962,1.962,0,0,1-2.7-1.284q-3.063-13.36-6.1-26.732c-2.034,6.432-3.7,12.979-5.654,19.438a1.943,1.943,0,0,1-3.544.264c-1.528-4.087-2.869-8.248-4.375-12.343-1.478,1.306-2.9,2.674-4.4,3.957a2.344,2.344,0,0,1-1.755.5c-4.731-.016-9.466,0-14.2-.008,0-1.31,0-2.617,0-3.927,4.478-.007,8.957.012,13.435-.007.506.084.854-.3,1.195-.6,1.808-1.647,3.594-3.329,5.452-4.919a1.927,1.927,0,0,1,3,.908c1.1,2.977,2.054,6,3.188,8.968C420.811,2420.422,422.715,2413.384,424.807,2406.4Z" fill="#26786a"/>
  </g>
</svg>
