<svg xmlns="http://www.w3.org/2000/svg" width="214.244" height="67.719" viewBox="0 0 214.244 67.719">
  <g id="Group_43" data-name="Group 43" transform="translate(-207.446 -36.376)">
    <rect id="Rectangle_10" data-name="Rectangle 10" width="67.719" height="67.719" transform="translate(207.446 36.376)" fill="#26786a"/>
    <g id="Group_41" data-name="Group 41">
      <path id="Path_40" data-name="Path 40" d="M221.381,51.38q7.5-.006,15.014,0c0,.574,0,1.147,0,1.725a8.493,8.493,0,0,0-3.21.415c-.919.518-.86,1.724-.9,2.636-.015,7.363.007,14.723-.011,22.087-.029,3.025-.669,6.356-3.011,8.484-2.367,2.158-5.771,2.515-8.837,2.331-2.169-.165-4.574-.467-6.235-2.014-.85-.747-1.147-2.291-.114-3.011a3.34,3.34,0,0,1,4.268.672c.68.784,1.176,1.817,2.195,2.225a3.5,3.5,0,0,0,4.334-1.324c.963-1.8.963-3.908,1.037-5.893q.027-11.762.007-23.52c-.044-.938.022-2.214-.982-2.691a10.5,10.5,0,0,0-3.555-.394C221.385,52.534,221.385,51.957,221.381,51.38Z" fill="#fff"/>
      <path id="Path_41" data-name="Path 41" d="M239.784,53.108c.008-.578.011-1.155,0-1.732,5.68.026,11.36-.055,17.039.044,3.438.177,7.232.548,9.9,2.963a8.107,8.107,0,0,1,1.283,10.066,9.732,9.732,0,0,1-5.669,3.805c-3.889,1.1-7.977.893-11.977.919.008,3.154-.014,6.3.011,9.459.019.882.081,2.066,1.059,2.433a12.217,12.217,0,0,0,3.731.379c-.014.566-.014,1.129,0,1.695q-7.687,0-15.378,0c.007-.559,0-1.121,0-1.684,1.166-.092,2.467.1,3.5-.562.772-.64.666-1.754.724-2.651q0-11.018,0-22.031c-.047-.949.033-2.254-.992-2.732a9.839,9.839,0,0,0-3.232-.367m10.6,1.988c-.045,3.982-.008,7.963-.019,11.948,3.246-.07,6.8.394,9.705-1.375,2.1-1.264,2.717-3.922,2.522-6.213a5.691,5.691,0,0,0-2.749-4.8c-2.589-1.438-5.68-1.206-8.537-1.155C250.449,53.449,250.416,54.486,250.387,55.1Z" fill="#fff"/>
    </g>
    <g id="Group_42" data-name="Group 42">
      <path id="Path_42" data-name="Path 42" d="M300.741,72.894c-.406.833-1.338,2.848-2.768,5.991h-.132c-.836-1.927-1.768-3.97-2.769-6.073L288.8,59.459h-4.7V80.985h2.778V67.512l-.057-5c0-.368,0-.722.013-1.064h.082c.887,2.077,1.8,4.1,2.712,6.017l6.408,13.522h3.6l6.507-13.526c1.353-2.981,2.246-5,2.657-6.013h.09l-.037,6.04v13.5h2.893V59.459H307.09Z" fill="#26786a"/>
      <path id="Path_43" data-name="Path 43" d="M321.141,70.565H332.5V68.494h-11.36V61.531h15.044V59.459H318.133V80.985h18.341V78.913H321.141Z" fill="#26786a"/>
      <path id="Path_44" data-name="Path 44" d="M359.627,62.434c-2.369-1.974-5.92-2.975-10.554-2.975h-8.69V80.985h8.191c4.039,0,7.331-.791,9.783-2.351a9.461,9.461,0,0,0,4.531-8.518A9.492,9.492,0,0,0,359.627,62.434ZM343.391,61.5h5.452c7.323,0,10.883,2.826,10.883,8.641a7.882,7.882,0,0,1-2.688,6.386c-1.923,1.6-4.8,2.411-8.54,2.411h-5.107Z" fill="#26786a"/>
      <rect id="Rectangle_11" data-name="Rectangle 11" width="3.008" height="21.525" transform="translate(367.583 59.459)" fill="#26786a"/>
      <path id="Path_45" data-name="Path 45" d="M394.871,74.6c-1.053,3.176-3.537,4.72-7.593,4.72a8.416,8.416,0,0,1-8.83-9.094,9.16,9.16,0,0,1,2.23-6.42,8.5,8.5,0,0,1,6.6-2.66c3.851,0,6.247,1.517,7.325,4.638l.061.177,2.969-.674-.085-.225a8.5,8.5,0,0,0-3.4-4.187,13.972,13.972,0,0,0-14.923.761,10.416,10.416,0,0,0-3.936,8.633,10.544,10.544,0,0,0,3.055,7.811,12.138,12.138,0,0,0,8.9,3.312c5.324,0,8.869-2,10.535-5.953l.092-.219-2.934-.808Z" fill="#26786a"/>
      <path id="Path_46" data-name="Path 46" d="M412.1,59.583l-.055-.124h-3.609l-9.667,21.526h3.048l3.109-6.97h10.531l3.032,6.97h3.2Zm-1.91,1.792c.653,1.774,1.406,3.615,2.238,5.473l2.254,5.208H405.7l2.236-5.236c.773-1.782,1.506-3.613,2.18-5.445Z" fill="#26786a"/>
    </g>
  </g>
</svg>
