<svg xmlns="http://www.w3.org/2000/svg" width="112.953" height="69.126" viewBox="0 0 112.953 69.126">
  <g id="Group_9" data-name="Group 9" transform="translate(-375.337 -1854.567)">
    <path id="Path_25" data-name="Path 25" d="M390.406,1854.922a21.232,21.232,0,0,1,9.829.548c6.019,1.808,11.365,5.343,16.067,9.437a20.379,20.379,0,0,0,9.416,5.1,27.656,27.656,0,0,0,8.637.624,21.71,21.71,0,0,0,12.023-4.875,52.222,52.222,0,0,1,11.525-8.108c4.254-2.116,9.045-3.5,13.831-2.957,7.814.843,14.91,7.038,16.314,14.852a16.032,16.032,0,0,1-.331,7,17.363,17.363,0,0,1-6.034,10.5,15.909,15.909,0,0,1-6.546,3.024,11.36,11.36,0,0,0,1.553-4.506,8.67,8.67,0,0,0-2.743-6.533,7.724,7.724,0,0,0,4.608-1.74c1.026-1.037,1-2.621.853-3.968a11.754,11.754,0,0,0-5.978-9.262,15.023,15.023,0,0,0-10.858-.942,15.527,15.527,0,0,0-9.969,6.569c-2.517,3.734-3.416,8.222-4.458,12.526a41.322,41.322,0,0,1-3.38,9.959,82.272,82.272,0,0,1-6.492,11.322c-.808,1.225-1.992,2.3-2.191,3.831a53.787,53.787,0,0,0-.221,13.357c.119.907.341,1.8.5,2.7-1.523,0-3.026.272-4.547.308-1.52-.036-3.025-.308-4.546-.311a46.231,46.231,0,0,0,.8-10.043,37.389,37.389,0,0,0-.606-6.347c-.265-1.388-1.378-2.351-2.1-3.5a77.426,77.426,0,0,1-8.189-15.275,93.514,93.514,0,0,1-2.58-9.674c-1.012-4.124-2.525-8.354-5.655-11.362-2.972-2.947-7.178-4.241-11.255-4.616a12.872,12.872,0,0,0-9.575,2.975,12.028,12.028,0,0,0-3.93,9.608,3.3,3.3,0,0,0,1.164,2.389,8.018,8.018,0,0,0,4.187,1.467c-1.607,2-2.982,4.5-2.514,7.155a12.13,12.13,0,0,0,1.48,3.91,15.322,15.322,0,0,1-9.831-6.641,18.478,18.478,0,0,1-2.8-7.091,16.12,16.12,0,0,1,1.508-11.864A19.373,19.373,0,0,1,390.406,1854.922Z" fill="#26786a"/>
    <path id="Path_26" data-name="Path 26" d="M401.862,1875.041c2.168-.226,4.618-.4,6.516.861,1.085,1.325,1.082,3.2,1.077,4.832a17.9,17.9,0,0,1-2.687,8.828,9.571,9.571,0,0,1-9.348,3.808,7.961,7.961,0,0,1-6.571-7.532,9.6,9.6,0,0,1,4.4-8.571A16.767,16.767,0,0,1,401.862,1875.041Z" fill="#26786a"/>
    <path id="Path_27" data-name="Path 27" d="M457.384,1875.057a17.429,17.429,0,0,1,10.371,1.844,9.491,9.491,0,0,1,4.447,11.6,7.938,7.938,0,0,1-6.492,4.955,9.665,9.665,0,0,1-7.919-2.782c-1.969-2.012-2.832-4.806-3.344-7.509a12.239,12.239,0,0,1,.293-6.482C455.114,1875.576,456.37,1875.265,457.384,1875.057Z" fill="#26786a"/>
  </g>
</svg>
