<svg xmlns="http://www.w3.org/2000/svg" width="86.12" height="77.465" viewBox="0 0 86.12 77.465">
  <g id="Group_12" data-name="Group 12" transform="translate(-893.94 -2122.168)">
    <path id="Path_37" data-name="Path 37" d="M907.875,2124.232a2.219,2.219,0,0,1,4.413-.127c.1,1.071.091,2.151.134,3.227.145,1.977.068,3.963.081,5.944-.136,2.357-.176,4.725-.491,7.067a30.843,30.843,0,0,1-1.671,7.331,9.818,9.818,0,0,1-1.59,2.67,98.689,98.689,0,0,0-8.844,13.544,14.566,14.566,0,0,0-1.807,6.948,7.39,7.39,0,0,0,2.194,5.191,12.627,12.627,0,0,0,5.533,2.827,22.023,22.023,0,0,0,6.335.722,17.739,17.739,0,0,0,2.839-.171,17.054,17.054,0,0,0-5.239-3.378,6.82,6.82,0,0,1-2.1-.989,2.234,2.234,0,0,1,2.472-3.631,21.5,21.5,0,0,1,9.37,6.343c.431.518.769,1.106,1.2,1.624a12.992,12.992,0,0,0,6.312,2.673,23.314,23.314,0,0,0,2.964,0,13.2,13.2,0,0,0,3.857-1.144,12.521,12.521,0,0,1,1.41-4.491,20.658,20.658,0,0,1,1.228-1.86,11.831,11.831,0,0,1-1.424-12.27,11.072,11.072,0,0,1,6.874-5.021,15.11,15.11,0,0,1,4.749-.283,11.884,11.884,0,0,1,10.039-7.427,11.826,11.826,0,0,1,10.24,7.428,15.732,15.732,0,0,1,4.28.181,11.436,11.436,0,0,1,6.9,4.418,9.451,9.451,0,0,1,1.445,3.818,12.027,12.027,0,0,1-2.318,9.031c.256.4.548.765.821,1.148a11.257,11.257,0,0,1,.652,11.646,10.812,10.812,0,0,1-6.928,4.982,16.5,16.5,0,0,1-4.8.217,12.205,12.205,0,0,1-4.887,5.653,9.708,9.708,0,0,1-6.852,1.406,12.014,12.014,0,0,1-8.5-7.165,13.87,13.87,0,0,1-3.278.126,11.732,11.732,0,0,1-6.487-2.919,9.968,9.968,0,0,1-2.634-3.96c-.854.182-1.663.533-2.53.665a17.158,17.158,0,0,1-4.961.278,19.753,19.753,0,0,1-6.191-1.9c-.692-.309-1.295-.789-1.99-1.089a14.687,14.687,0,0,0-2.3.258,30.294,30.294,0,0,1-13.717-1.239,12.994,12.994,0,0,1-6.446-4.821,14.048,14.048,0,0,1-1.966-10.759,20.126,20.126,0,0,1,1.784-5.252,99.581,99.581,0,0,1,7.281-11.559c.855-1.164,1.774-2.282,2.588-3.476a17.121,17.121,0,0,0,1.666-5.867,79.313,79.313,0,0,0,.475-11.534c.014-1.679-.191-3.351-.182-5.03m47.409,30.045a6.14,6.14,0,0,0-4.467,4.134c-.269.707-.26,1.476-.5,2.188a2.188,2.188,0,0,1-2.215,1.407,7.067,7.067,0,0,1-1.567-.487,7.934,7.934,0,0,0-3.329-.249,6.337,6.337,0,0,0-4.807,4.637,6.179,6.179,0,0,0,.458,4.385,7.913,7.913,0,0,0,2.393,2.661,2.228,2.228,0,0,1-.166,3.474,6.983,6.983,0,0,0-2.645,3.02,6.207,6.207,0,0,0-.32,3.261,7.046,7.046,0,0,0,4.334,5.265,5.928,5.928,0,0,0,4.295-.228,4.328,4.328,0,0,1,1.5-.5,2.261,2.261,0,0,1,2.29,1.877,7.709,7.709,0,0,0,.869,2.887,6.108,6.108,0,0,0,4.04,2.995,6.251,6.251,0,0,0,7.766-5.606,2.271,2.271,0,0,1,1.245-1.905,2.42,2.42,0,0,1,2.328.117,5.874,5.874,0,0,0,4.663.385,7.019,7.019,0,0,0,4.281-7.582,6.022,6.022,0,0,0-3.013-3.905,2.238,2.238,0,0,1-.322-3.5,7.65,7.65,0,0,0,2.537-2.948,6.355,6.355,0,0,0-.671-6.241,6.271,6.271,0,0,0-4.034-2.569,7.884,7.884,0,0,0-3.1.263,7.6,7.6,0,0,1-1.653.5,2.275,2.275,0,0,1-2.257-1.614,9.364,9.364,0,0,0-.712-2.781,6,6,0,0,0-3.263-3.07A6.755,6.755,0,0,0,955.284,2154.277Z" fill="#26786a"/>
    <path id="Path_38" data-name="Path 38" d="M945.762,2122.28a2.9,2.9,0,0,1,1.429-.04,2.213,2.213,0,0,1,1.567,2.116c-.029,2.972-.03,5.943.047,8.913.14,1.136.067,2.282.157,3.421.161.8.042,1.617.217,2.412a29.211,29.211,0,0,0,1.142,6.484,4.038,4.038,0,0,1,.4,1.347,2.272,2.272,0,0,1-1.479,2.174,2.223,2.223,0,0,1-2.8-1.253c-1.264-3.181-1.471-6.648-1.82-10.015a11.279,11.279,0,0,0-.11-1.743c-.177-3.512-.263-7.03-.21-10.549a5.843,5.843,0,0,1,.167-1.988A2.308,2.308,0,0,1,945.762,2122.28Z" fill="#26786a"/>
    <path id="Path_39" data-name="Path 39" d="M955.27,2164.617a10.4,10.4,0,0,1,8.718,2.808,10.934,10.934,0,0,1,2.871,5.7,18.876,18.876,0,0,1,.012,2.893,10.745,10.745,0,0,1-9.122,8.7c-4.941.512-9.7-3.279-10.813-8.023a8.948,8.948,0,0,1,.678-6.078,10.848,10.848,0,0,1,7.656-6m.3,4.422a5.179,5.179,0,0,0-3.761,2.665,6.607,6.607,0,0,0-.4,4.829,4.989,4.989,0,0,0,2.79,3.248,6.826,6.826,0,0,0,3.555.474,5.119,5.119,0,0,0,4.39-3.379,8.089,8.089,0,0,0,.289-3.364,5.782,5.782,0,0,0-2.837-3.9A6.167,6.167,0,0,0,955.567,2169.039Z" fill="#26786a"/>
  </g>
</svg>
