<svg xmlns="http://www.w3.org/2000/svg" width="82.056" height="71.154" viewBox="0 0 82.056 71.154">
  <path id="Path_37" data-name="Path 37" d="M919.55,1460.084a3.228,3.228,0,0,1,2.62-2.091,21.656,21.656,0,0,1,2.6-.066q7.9,0,15.807,0a3.7,3.7,0,0,1,3.207,1.58c.709,1.058.389,2.393.525,3.584,3.158.011,6.315,0,9.474,0a5.469,5.469,0,0,1,4.9,2.737c1.1,1.684.514,3.757.733,5.631a39.687,39.687,0,0,1,4.24-1.21,19.058,19.058,0,0,1,16.366,4.66,18.223,18.223,0,0,1,4.006,5.18,18.859,18.859,0,0,1,1.245,14.8,19.2,19.2,0,0,1-13.02,12.473c-.038,5.558.026,11.115-.024,16.67a5.08,5.08,0,0,1-5.015,5.008,5.026,5.026,0,0,1-4.551-2.82c-.726-1.407-.488-3.034-.547-4.555.038-4.765.005-9.531.024-14.294-.9-.337-1.818-.65-2.742-.917-.085,5.862,0,11.724-.043,17.585a5.406,5.406,0,0,1-5.343,5.013c-14.7.029-29.4,0-44.1.014a5.48,5.48,0,0,1-5.249-3.32,12.271,12.271,0,0,1-.481-4.786q-.007-25.939,0-51.878a6.03,6.03,0,0,1,1.6-4.365,5.912,5.912,0,0,1,4.367-1.631c3.041.009,6.081,0,9.122,0a15.552,15.552,0,0,1,.283-3.011m3.068,1.078c-.123,2.351-.073,4.709-.04,7.064,4.442.043,8.887.035,13.329.005a44.1,44.1,0,0,0,5.27-.083q-.067-3.42,0-6.845a14.128,14.128,0,0,0-1.509-.106c-5.682-.045-11.365-.023-17.047-.035m-15.209,7.451q.012,27.474.005,54.953a2.156,2.156,0,0,0,2.254,2.252q20.256-.015,40.506-.008c1.361,0,2.721.055,4.08-.009a2.144,2.144,0,0,0,1.935-2.231c.029-6.059-.009-12.121.017-18.184-.026-.337.057-.752-.257-.983a26.35,26.35,0,0,1-3.162-2.968c-.91-.977-1.49-2.2-2.386-3.186a15.953,15.953,0,0,0-.821-2.058,19.982,19.982,0,0,1-1.308-4.841c-1.707-.021-3.417,0-5.124-.005a1.888,1.888,0,0,1-1.806-.858c-.609-1.163-1.005-2.422-1.563-3.605l-.253-.022q-2.483,5.32-4.947,10.649c-.292.589-.643,1.332-1.388,1.4a1.563,1.563,0,0,1-1.738-.884c-2.009-4.874-3.8-9.842-5.831-14.706-1.351,2.265-2.377,4.706-3.657,7.01a1.775,1.775,0,0,1-1.656,1.013c-2.053.01-4.109,0-6.165.005a1.922,1.922,0,0,1-1.637-.773,1.617,1.617,0,0,1,1.179-2.422c1.943-.066,3.888,0,5.834-.026,1.619-3.183,3.192-6.39,4.854-9.547a1.6,1.6,0,0,1,2.6-.379,10.86,10.86,0,0,1,.943,2.143c1.737,4.256,3.275,8.6,5.1,12.817,1.83-3.645,3.45-7.394,5.216-11.07a1.735,1.735,0,0,1,1.627-1.075,1.953,1.953,0,0,1,1.521,1.391c.766,1.915,1.632,3.784,2.37,5.711,1.478.014,2.956.019,4.435.007-.045-2.865,1.028-5.565,2.115-8.158a27.124,27.124,0,0,1,3.6-4.617c.686-.75,1.617-1.24,2.256-2.03.113-1.248.012-2.5.05-3.752a3.494,3.494,0,0,0-.5-2.412,2.224,2.224,0,0,0-1.915-.851c-3.176.005-6.352-.052-9.528-.012q-.028,1.185,0,2.372a3.242,3.242,0,0,1-3.219,2.726q-9.2,0-18.392,0a3.109,3.109,0,0,1-2.945-1.7c-.511-1.047-.271-2.257-.4-3.377-3.212-.021-6.423-.014-9.635-.009a2.205,2.205,0,0,0-2.259,2.311m57.316,4.68a15.959,15.959,0,0,0-11.16,7.6,15.839,15.839,0,0,0,25.22,18.87,16.154,16.154,0,0,0,4.289-11.1,16.87,16.87,0,0,0-2.141-7.591,15.934,15.934,0,0,0-12.3-7.87,25.667,25.667,0,0,0-3.912.094m.681,34.755q.028,5.712,0,11.427a20.2,20.2,0,0,0,3.6.021q-.028-5.722,0-11.443c-1.2.045-2.4.05-3.594-.005m-.009,14.782c.061.781-.163,1.712.434,2.344a1.75,1.75,0,0,0,2.615.106c.719-.623.519-1.634.526-2.471C967.781,1522.781,966.588,1522.771,965.4,1522.83Z" transform="translate(-904.173 -1457.92)" fill="#26786a"/>
  <path id="Path_38" data-name="Path 38" d="M964.935,1476.248a12.871,12.871,0,0,1,8.833,1.617,13.2,13.2,0,0,1,5.743,7.147,12.861,12.861,0,0,1-.856,9.882,12.66,12.66,0,0,1-11.676,6.915,12.2,12.2,0,0,1-7.977-2.834,12.8,12.8,0,0,1-4.7-10.315,12.94,12.94,0,0,1,10.637-12.412m.259,3.2a9.731,9.731,0,1,0,11.177,12.707,9.115,9.115,0,0,0,.419-4.617,9.656,9.656,0,0,0-6.227-7.673A10.56,10.56,0,0,0,965.194,1479.445Z" transform="translate(-904.173 -1457.92)" fill="#26786a"/>
  <path id="Path_39" data-name="Path 39" d="M913.068,1504.337a14.715,14.715,0,0,1,2.038-.056c6.918.014,13.838-.005,20.756.009a1.6,1.6,0,0,1,1.608.946,1.563,1.563,0,0,1-1.363,2.171c-7.477.019-14.953,0-22.43.012a1.6,1.6,0,0,1-1.778-1.754A1.448,1.448,0,0,1,913.068,1504.337Z" transform="translate(-904.173 -1457.92)" fill="#26786a"/>
  <path id="Path_40" data-name="Path 40" d="M941.545,1504.311c2.586-.052,5.173.012,7.759-.033.682.026,1.519-.085,2.014.5a2.613,2.613,0,0,1,.443,1.794q-.016,6.141,0,12.278c-.024.66.009,1.452-.561,1.912-.578.521-1.425.373-2.139.413-2.507-.052-5.015.038-7.519-.045a1.9,1.9,0,0,1-1.08-1.8c-.012-4.333,0-8.67-.005-13a1.987,1.987,0,0,1,1.085-2.019m2.148,3.164c-.005,3.493.014,6.985,0,10.474,1.582.085,3.167.071,4.749.019.094-3.44.009-6.88.045-10.32A17.752,17.752,0,0,0,943.693,1507.475Z" transform="translate(-904.173 -1457.92)" fill="#26786a"/>
  <path id="Path_41" data-name="Path 41" d="M913.068,1511.182a11.761,11.761,0,0,1,1.8-.061q10.384.011,20.766,0a1.784,1.784,0,0,1,1.4.4,1.574,1.574,0,0,1,.005,2.391c-.337.429-.92.363-1.405.387-7.4-.017-14.8.005-22.2-.01a1.566,1.566,0,0,1-1.559-1.575A1.625,1.625,0,0,1,913.068,1511.182Z" transform="translate(-904.173 -1457.92)" fill="#26786a"/>
  <path id="Path_42" data-name="Path 42" d="M912.889,1518.074a5.125,5.125,0,0,1,1.019-.073q10.974.021,21.952.005a1.587,1.587,0,1,1,0,3.159q-11.091,0-22.185,0a1.585,1.585,0,0,1-1.785-1.613A1.693,1.693,0,0,1,912.889,1518.074Z" transform="translate(-904.173 -1457.92)" fill="#26786a"/>
</svg>
