<svg xmlns="http://www.w3.org/2000/svg" width="43.022" height="55.514" viewBox="0 0 43.022 55.514">
  <path id="Path_50" data-name="Path 50" d="M1206.458,4167.718a3.266,3.266,0,0,1-.4-1.049q-.032-21.952-.028-43.9a1.417,1.417,0,0,1,.5-1.136c3.275-3,6.532-6.027,9.817-9.02a1.624,1.624,0,0,1,1-.389q15.339-.03,30.678-.016c.811,0,1.027.212,1.027,1.024q0,26.719-.015,53.442a3.232,3.232,0,0,1-.4,1.047Zm1.016-44.644V4166.3h40.141v-52.662h-29.883v.617q0,3.9,0,7.805c0,.831-.185,1.017-1.019,1.017q-4.282,0-8.565,0Zm8.84-8.564c-2.619,2.416-5.142,4.745-7.748,7.148h7.748Z" transform="translate(-1206.032 -4112.204)" fill="#fff"/>
  <path id="Path_51" data-name="Path 51" d="M1238.995,4127.6c0-.647.01-1.207,0-1.766a.79.79,0,0,1,.76-.927.777.777,0,0,0,.742-.843c.013-.667.017-1.337,0-2a.783.783,0,0,0-.857-.844q-5.283-.013-10.568,0a.779.779,0,0,0-.872.826c-.027.685-.018,1.373,0,2.059a.775.775,0,0,0,.612.793c.854.231.866.247.866,1.143q0,13.684,0,27.37a8.671,8.671,0,0,0,.1,1.348,4.781,4.781,0,0,0,4.345,3.959,4.546,4.546,0,0,0,4.681-3.423,23.929,23.929,0,0,0,.268-3.545c-.869,0-1.6.006-2.339,0-.424,0-.747-.161-.8-.634-.046-.449.251-.742.778-.75.752-.012,1.5,0,2.244,0v-4.314c-.8,0-1.554,0-2.309,0a.638.638,0,0,1-.706-.6.618.618,0,0,1,.491-.734,2.45,2.45,0,0,1,.59-.05c.643-.006,1.287,0,1.928,0v-4.28c-.767,0-1.49,0-2.212,0a.715.715,0,0,1-.784-.528c-.129-.476.195-.853.756-.861.751-.012,1.5,0,2.243,0v-4.316c-.8,0-1.556,0-2.312,0a.683.683,0,0,1-.1-1.36,3.831,3.831,0,0,1,.595-.022h1.827v-4.284c-.749,0-1.468.007-2.185,0-.553-.008-.846-.261-.846-.7s.29-.684.847-.689c.717-.006,1.436,0,2.216,0" transform="translate(-1206.032 -4112.204)" fill="#fff"/>
  <path id="Path_52" data-name="Path 52" d="M1221.015,4140.939c0,1.011,0,2.022,0,3.032-.005.659-.221.874-.879.876q-3.087.007-6.173,0c-.6,0-.857-.243-.86-.854q-.009-3.087,0-6.172c0-.638.255-.884.894-.886q3.087-.01,6.172,0c.6,0,.839.249.844.865.006,1.048,0,2.093,0,3.14m-1.426-2.575h-5.065v5.064h5.065Z" transform="translate(-1206.032 -4112.204)" fill="#fff"/>
  <path id="Path_53" data-name="Path 53" d="M1221.018,4153.273c0,1.029.006,2.058,0,3.085-.006.627-.228.85-.849.851q-3.111.007-6.225,0c-.578,0-.833-.238-.836-.819q-.015-3.111,0-6.225c0-.61.256-.858.861-.859q3.111-.011,6.224,0c.578,0,.815.248.82.832.01,1.045,0,2.092,0,3.138Zm-1.424-2.547h-5.073v5.063h5.073Z" transform="translate(-1206.032 -4112.204)" fill="#fff"/>
</svg>
