<svg xmlns="http://www.w3.org/2000/svg" width="30.523" height="39.139" viewBox="0 0 30.523 39.139">
  <path id="Path_71" data-name="Path 71" d="M406.24,1485.307a5.05,5.05,0,0,0-2.868,1.257,20.952,20.952,0,0,1-3.392,2.21,7.385,7.385,0,0,1-4.175.028c-.971-.183-1.846-.893-2.872-.714a24.7,24.7,0,0,0-5.077.994c-1.9.578-3.785,1.21-5.688,1.783a14.12,14.12,0,0,1-2.375.672h-1.269a3.14,3.14,0,0,1-.663-.212,3.431,3.431,0,0,1-1.171-.922.824.824,0,0,1,.118-1.161c.2-.207.5-.167.763-.208.291-1.052.665-2.08.994-3.122q1.426-4.178,3.1-8.267c.427-1.073.916-2.121,1.366-3.184.8-1.73,1.6-3.457,2.512-5.13a36.057,36.057,0,0,1,5.029-7.384,15.778,15.778,0,0,1,1.831-1.646,1.649,1.649,0,0,0-.645.133,7.133,7.133,0,0,0-1.7.929,17.479,17.479,0,0,0-3.465,3.642,36.935,36.935,0,0,0-2.1,3.212,82.79,82.79,0,0,0-5.785,12.595,1.084,1.084,0,0,1-.29.382,1.58,1.58,0,0,1-.47-.995,23.585,23.585,0,0,1-.3-4.9,18.359,18.359,0,0,1,.827-5.336,3.355,3.355,0,0,1,.794-1.328,4.354,4.354,0,0,0,.32,1.37,8.394,8.394,0,0,1,.5,1.251.971.971,0,0,0,.094-.223c.505-1.814.639-3.711,1.182-5.516a13.492,13.492,0,0,1,1.416-3.133,10.672,10.672,0,0,1,2.524-2.824,10.952,10.952,0,0,1,.534,1.06,1.2,1.2,0,0,0,.3.467,7.69,7.69,0,0,1,3.491-4.643c2.449-1.478,5.311-2,7.9-3.152a10.421,10.421,0,0,0,1.733-.891h.141a12.735,12.735,0,0,1-.564,3.167,31.584,31.584,0,0,1-.428,3.2,6.96,6.96,0,0,1-2.34,3.668c-.875.739-1.863,1.327-2.8,1.979a3.361,3.361,0,0,0-.609.5c.917-.06,1.827-.243,2.747-.229a2.45,2.45,0,0,0-1.105.771,26.731,26.731,0,0,0-1.368,2.819,4.716,4.716,0,0,1-1.139,1.255,24.265,24.265,0,0,1-2.382,1.3,4.137,4.137,0,0,1,2.87.89.932.932,0,0,1-.138.169,6.541,6.541,0,0,0-1.345,1.349c-.921,1.275-1.527,2.755-2.547,3.962a5.952,5.952,0,0,1-1.705,1.367c-1.151.712-2.418,1.224-3.536,1.991a3.972,3.972,0,0,0-1.729,2c-.33.72-.781,1.378-1.152,2.078q-1.272,2.2-2.521,4.424c.335.168.528.511.854.7a1.707,1.707,0,0,0,1.133.138c.931-.194,1.81-.573,2.723-.838,1.376-.4,2.733-.854,4.1-1.274a33.731,33.731,0,0,1,5.011-1.226,9.753,9.753,0,0,1,2.447-.138c.869.147,1.636.63,2.5.8a6.506,6.506,0,0,0,2.645.128,6.422,6.422,0,0,0,1.9-1.066c.66-.521,1.361-.986,2.055-1.461a5.533,5.533,0,0,1,3.115-1.182.88.88,0,0,1,.887.577A.816.816,0,0,1,406.24,1485.307Z" transform="translate(-376.503 -1452.398)" fill="#fff"/>
</svg>
