<svg xmlns="http://www.w3.org/2000/svg" width="71.064" height="69.715" viewBox="0 0 71.064 69.715">
  <g id="Group_11" data-name="Group 11" transform="translate(-396.281 -1458.673)">
    <path id="Path_30" data-name="Path 30" d="M442.366,1458.673h3.68l-.228.2a8.723,8.723,0,0,1,7.32,8.488q-.006,10.874,0,21.747c-.016,3.205.031,6.412-.022,9.616-1.03,1.75-2.185,3.43-3.252,5.159q-2.81,4.393-5.609,8.793c-2.892-4.508-5.762-9.03-8.649-13.543-.1-.181-.256-.354-.235-.572q0-15.675,0-31.348a8.6,8.6,0,0,1,1.645-4.847,8.86,8.86,0,0,1,5.44-3.471c-.022-.055-.066-.168-.087-.225m-3.3,7.582a9.316,9.316,0,0,0-.14,2.306c.006,10.069-.012,20.139.009,30.21q5.324-.031,10.646,0,.014-15.547,0-31.095a5.062,5.062,0,0,0-.7-2.812,5.344,5.344,0,0,0-5.522-2.592,5.29,5.29,0,0,0-4.3,3.986m1.637,36c1.174,1.693,2.327,3.4,3.478,5.107.039,0,.12-.008.159-.009,1.136-1.714,2.3-3.41,3.472-5.1C445.44,1502.226,443.065,1502.223,440.7,1502.256Z" fill="#26786a"/>
    <path id="Path_31" data-name="Path 31" d="M396.437,1472.885a7.135,7.135,0,0,1,6.889-5.464q14.243,0,28.487.005c.017,1.157.026,2.315,0,3.472q-14.24,0-28.481.005a3.543,3.543,0,0,0-3.5,3.514q0,23.465,0,46.926a3.535,3.535,0,0,0,3.5,3.514q28.405.008,56.812,0a3.554,3.554,0,0,0,3.264-1.931,4.11,4.11,0,0,0,.381-2.183q0-23.162,0-46.324a7.5,7.5,0,0,0-.179-1.29c.024-.1.153-.366-.133-.092a3.43,3.43,0,0,0-3.183-2.136c-1.21-.023-2.42.015-3.628-.021.012-1.146.022-2.293,0-3.438.812-.05,1.625-.011,2.437-.023a8.608,8.608,0,0,1,4.207.687,7.234,7.234,0,0,1,3.835,4.5l.2-.05v50.717l-.15-.428a7.049,7.049,0,0,1-5.383,5.32c.024.055.07.164.094.22H401.943l-.26-.072.242-.13a6.984,6.984,0,0,1-5.4-5.008l-.246.017v-50.7Z" fill="#26786a"/>
    <path id="Path_32" data-name="Path 32" d="M410.617,1485.931a1.768,1.768,0,0,1,1.7-1.1q6.221,0,12.444,0a1.77,1.77,0,0,1,1.7,2.011,1.8,1.8,0,0,1-1.847,1.463c-4.152-.006-8.3,0-12.456-.005a2.16,2.16,0,0,1-.93-.292c.014.04.041.121.054.16l-.372-.094c.117-.039.234-.08.35-.121A1.609,1.609,0,0,1,410.617,1485.931Z" fill="#26786a"/>
    <path id="Path_33" data-name="Path 33" d="M410.676,1497.985a1.809,1.809,0,0,1,1.655-.972q8.009.009,16.015.005a1.735,1.735,0,1,1-.135,3.468q-8.018,0-16.036,0c-.249-.012-.756-.018-.667-.388l-.134.148A1.707,1.707,0,0,1,410.676,1497.985Z" fill="#26786a"/>
    <path id="Path_34" data-name="Path 34" d="M411.274,1509.505a2.283,2.283,0,0,1,1.49-.31c6.954.016,13.9-.009,20.856.019a1.731,1.731,0,0,1,1.742,1.636,1.762,1.762,0,0,1-1.751,1.826c-7.1.012-14.193,0-21.289.006a1.941,1.941,0,0,1-1.165-.378l-.116.15c.075-.379-.337-.532-.419-.862A1.7,1.7,0,0,1,411.274,1509.505Z" fill="#26786a"/>
  </g>
</svg>
