<svg xmlns="http://www.w3.org/2000/svg" width="66.415" height="50.453" viewBox="0 0 66.415 50.453">
  <path id="Path_44" data-name="Path 44" d="M662.788,3741.524q-9.77-.07-19.539,0a4.626,4.626,0,0,0-4.574,4.527c-.046,1.742-.013,3.484-.014,5.227-.08.072-.116.1-.2.174-5.374-.511-10.04,4.82-9.279,9.941.79,5.317,5.472,8.872,10.413,7.993a9.513,9.513,0,0,0,7.3-5.954c.705-.084.9.245.883.923-.043,1.5-.019,3-.008,4.5,0,.273-.029.679.122.789.274.2.493-.177.7-.339a25.992,25.992,0,0,0,3.267-2.634,9.92,9.92,0,0,1,9.222-3.19,5.407,5.407,0,0,0,4.723-1.3,5.176,5.176,0,0,0,1.464-3.751v-11.949a5.108,5.108,0,0,0-.509-2.322,4.263,4.263,0,0,0-3.98-2.627m1.076,16.76a1.669,1.669,0,0,1-1.758,1.744,23.08,23.08,0,0,1-3.2.026c-2.6-.177-5.032.061-6.937,2.144-.547.6-.9.434-.883-.408.024-1.354-.8-1.748-1.984-1.714a4.576,4.576,0,0,0-1.664.181c.686-3.449-2.6-7.375-5.159-8.357a.848.848,0,0,0-.422-.042c.46-1.654.114-3.347.241-5.017.105-1.394.483-1.86,1.872-1.873q8.946-.081,17.89-.007a1.765,1.765,0,0,1,1.993,1.836c.119,3.828.1,7.659.009,11.487" transform="translate(-600.862 -3741.488)" fill="#fff"/>
  <path id="Path_45" data-name="Path 45" d="M655.633,3777.112a6.546,6.546,0,0,0-4.2-4.932c-2.431-1.012-2.5-.995-2.761,1.576-.116,1.159-.215,2.218,1.085,2.96a3,3,0,0,1,1.381,2.612,26.2,26.2,0,0,1-1.158,8.447,2.109,2.109,0,0,1-2.585,1.356c-.475-.078-.843-.274-.846-.818s.347-.74.853-.764c.663-.034,1.319-.2,1.431-.962a33.586,33.586,0,0,0,.584-6.934,2.525,2.525,0,0,0-2.322-2.562,2.689,2.689,0,0,0-3.1,1.831c-.688,1.8-1.285,3.638-1.92,5.46-.283.814-.271,1.524.631,1.962.459.223.9.506.548,1.1a1.026,1.026,0,0,1-1.411.346,2.271,2.271,0,0,1-1.45-2.432c.116-2.373,1.272-4.431,1.983-6.624a4.423,4.423,0,0,1,3.709-3.261,1.05,1.05,0,0,0,1.029-1.119,21.332,21.332,0,0,0,.044-2.615c-.077-1.5-1.457-1.19-2.31-1.495-.828-.3-.671.654-.817,1.047a35.428,35.428,0,0,1-2.842,6.014,1.565,1.565,0,0,1-.465.519c-.161.1-.229-.107-.231-.243-.019-1.241-.832-2.412-.357-3.692a1.224,1.224,0,0,0-.63-1.583c-.293-.2-.542-.634-.966-.182s-1.233.673-1.006,1.583a6.667,6.667,0,0,1-.244,3.44c-.062.219-.051.61-.151.638-.364.1-.44-.281-.579-.515a24.764,24.764,0,0,1-2.794-6.191c-.288-1.065-.826-1.073-1.667-.728a1.749,1.749,0,0,0-1,1.321,19.348,19.348,0,0,0,.125,11.164,1.662,1.662,0,0,0,1.2,1.292c1.327.4,1.617,1.45,1.3,2.668a2.28,2.28,0,0,1-2.721,1.376,2.008,2.008,0,0,1-1.28-2.681,2.436,2.436,0,0,0,.047-1.659,22.2,22.2,0,0,1-.911-9.329c.09-1.043.322-2.075.488-3.113-1.15-.127-6.069,2.033-6.64,3.731-.808,2.356-2.231,13.028-2.308,14.624a1.893,1.893,0,0,0,2.064,2.184q16.451.014,32.9,0c1.487,0,2.128-.689,2-2.181a91.522,91.522,0,0,0-1.726-12.641" transform="translate(-600.862 -3741.488)" fill="#fff"/>
  <path id="Path_46" data-name="Path 46" d="M618.742,3778.051a.715.715,0,0,0,.505-.475,13.588,13.588,0,0,0,.137-8.554,1.253,1.253,0,0,0-1.266-.81c-.5-.028-.48.521-.6.855a23.459,23.459,0,0,1-1.821,3.941,3.142,3.142,0,0,1-.468.515,2.884,2.884,0,0,1-.287-.652,8.372,8.372,0,0,1-.086-2.314.964.964,0,0,0-1.059-1.063.852.852,0,0,0-.768,1.145c.292.793-.1,1.524-.2,2.281-.028.2.11.546-.263.532-.133,0-.293-.226-.383-.382a26.559,26.559,0,0,1-1.932-4.053c-.157-.434-.206-1.057-.92-.806-.555.2-1.331.17-1.369,1.05-.052,1.24-.32,2.577,1.535,2.83a1.7,1.7,0,0,1,1.07.7,14.216,14.216,0,0,1,2.264,6.339,1.431,1.431,0,0,1-1.013,1.439.656.656,0,0,1-.9-.2.482.482,0,0,1,.2-.743c.857-.4.7-1.126.508-1.753-.385-1.242-.846-2.464-1.339-3.669a1.9,1.9,0,0,0-2.346-1.22,1.815,1.815,0,0,0-1.5,2.019c.05,1.208.186,2.413.277,3.62.061.848.089,1.7,1.273,1.738.341.011.5.264.467.6a.586.586,0,0,1-.568.554,1.665,1.665,0,0,1-2.028-1.4,23.1,23.1,0,0,1-.637-4.885,3.18,3.18,0,0,1,1.216-2.8,3.6,3.6,0,0,0,.317-3.2c-.142-.179-.3-.156-.5-.14a5.2,5.2,0,0,0-4.075,3.452,39.483,39.483,0,0,0-1.307,9.031c-.051,1.734.147,1.961,1.845,1.965q8.3.015,16.6.02a12.287,12.287,0,0,0,.351-2.6c-.946.145-1.812.024-2.09-1.047a1.449,1.449,0,0,1,1.171-1.862" transform="translate(-600.862 -3741.488)" fill="#fff"/>
  <path id="Path_47" data-name="Path 47" d="M614.319,3767.563a6.423,6.423,0,1,0-6.436-6.416,6.331,6.331,0,0,0,6.436,6.416" transform="translate(-600.862 -3741.488)" fill="#fff"/>
  <path id="Path_48" data-name="Path 48" d="M621.295,3773.714a7.9,7.9,0,0,1,3.522-2.885c-.91-1.029-2.213-1.3-3.416-1.751-.65-.245-.688.075-.6.647.207,1.323.331,2.659.492,3.989" transform="translate(-600.862 -3741.488)" fill="#fff"/>
</svg>
