<svg xmlns="http://www.w3.org/2000/svg" width="67.9" height="70.997" viewBox="0 0 67.9 70.997">
  <g id="Group_45" data-name="Group 45" transform="translate(-518.104 -1798.017)">
    <path id="Path_58" data-name="Path 58" d="M568.024,1848.006a9.265,9.265,0,0,0-5.947-6.984c-3.442-1.435-3.541-1.412-3.91,2.232-.165,1.641-.3,3.14,1.535,4.191a4.254,4.254,0,0,1,1.958,3.7,37.093,37.093,0,0,1-1.64,11.965c-.564,1.63-1.957,2.2-3.662,1.921-.674-.109-1.194-.389-1.2-1.157,0-.787.492-1.048,1.208-1.084.94-.047,1.87-.28,2.027-1.363a47.526,47.526,0,0,0,.828-9.822,3.576,3.576,0,0,0-3.289-3.63,3.809,3.809,0,0,0-4.395,2.594c-.976,2.552-1.819,5.155-2.72,7.736-.4,1.151-.382,2.159.894,2.777.652.317,1.281.718.778,1.567a1.457,1.457,0,0,1-2,.489,3.217,3.217,0,0,1-2.055-3.444c.167-3.363,1.8-6.277,2.81-9.385a6.269,6.269,0,0,1,5.255-4.619,1.486,1.486,0,0,0,1.457-1.585,29.946,29.946,0,0,0,.063-3.705c-.109-2.122-2.064-1.684-3.273-2.117-1.174-.42-.95.926-1.156,1.483a50.315,50.315,0,0,1-4.028,8.518,2.175,2.175,0,0,1-.658.736c-.228.14-.324-.151-.327-.342-.028-1.759-1.179-3.418-.506-5.231a1.735,1.735,0,0,0-.893-2.244c-.415-.278-.766-.9-1.368-.258-.619.657-1.745.954-1.425,2.244a9.418,9.418,0,0,1-.346,4.873c-.087.309-.07.865-.213.9-.517.142-.625-.4-.822-.729a35.22,35.22,0,0,1-3.958-8.771c-.407-1.509-1.17-1.519-2.361-1.032a2.468,2.468,0,0,0-1.41,1.873,27.414,27.414,0,0,0,.174,15.814,2.365,2.365,0,0,0,1.7,1.832c1.881.561,2.29,2.054,1.836,3.778a3.228,3.228,0,0,1-3.851,1.95,2.845,2.845,0,0,1-1.815-3.8,3.447,3.447,0,0,0,.066-2.35,31.447,31.447,0,0,1-1.29-13.216c.126-1.479.456-2.94.692-4.41-1.629-.179-8.6,2.88-9.408,5.285-1.144,3.338-3.16,18.456-3.268,20.717a2.681,2.681,0,0,0,2.923,3.095q23.3.018,46.608,0c2.107,0,3.015-.976,2.829-3.089A129.793,129.793,0,0,0,568.024,1848.006Z" fill="#26786a"/>
    <path id="Path_59" data-name="Path 59" d="M585.9,1814.668a18.811,18.811,0,0,0-4.664-10.449l-.339-.349a16.387,16.387,0,0,0-2.039-1.87,18.5,18.5,0,0,0-9.832-3.921,24.175,24.175,0,0,0-3.279-.013h-.016a18.7,18.7,0,0,0-16.516,13.976,12.978,12.978,0,1,0,6.052,18.921,18.549,18.549,0,0,0,11.8,4.4c.111,0,.221,0,.331,0a18.313,18.313,0,0,0,8.355-2.02,18.715,18.715,0,0,0,10.148-18.68Zm-33.117-.424a14.716,14.716,0,0,1,6.737-10.082,14.338,14.338,0,0,1,6.773-2.195l.063-.007a5.646,5.646,0,0,1,.758-.041q.172,0,.348,0c.166,0,.333,0,.435,0a14.951,14.951,0,0,1,4.187.8,14.773,14.773,0,0,1,9.936,12.609,14.414,14.414,0,0,1-.46,5.191,14.861,14.861,0,0,1-6.9,8.955,14.645,14.645,0,0,1-11.59,1.332,14.5,14.5,0,0,1-6.174-3.681,12.861,12.861,0,0,0-4.111-12.883Z" fill="#26786a"/>
    <path id="Path_60" data-name="Path 60" d="M566.19,1819.338l.154.151c1.071,1.071,1.829,1.8,2.587,2.517s1.5,1.432,2.547,2.477a2.043,2.043,0,0,0,1.489.654h.052a2.009,2.009,0,0,0,1.879-1.763,2.061,2.061,0,0,0-.626-1.651c-1.061-1.059-1.8-1.768-2.549-2.477-.712-.679-1.425-1.358-2.44-2.368l0-4.909v-5.659a1.937,1.937,0,0,0-.764-1.663,1.906,1.906,0,0,0-1.747-.35,2.009,2.009,0,0,0-1.447,1.947v11.2a2.172,2.172,0,0,0,.113.851A2.655,2.655,0,0,0,566.19,1819.338Z" fill="#26786a"/>
  </g>
</svg>
