<svg xmlns="http://www.w3.org/2000/svg" width="52.475" height="73.493" viewBox="0 0 52.475 73.493">
  <g id="Group_6" data-name="Group 6" transform="translate(-405.885 -1583.255)">
    <path id="Path_12" data-name="Path 12" d="M430.987,1583.307a10.115,10.115,0,0,1,6.345,18.672,10.075,10.075,0,0,1-11.3-.458,10.113,10.113,0,0,1,4.954-18.214Z" fill="#26786a"/>
    <path id="Path_13" data-name="Path 13" d="M409.406,1610.874a13.807,13.807,0,0,1,10.2-4.335q5.592,0,11.183,0,0,4.784,0,9.566c-.738.2-1.472.422-2.216.6-.008-.843,0-1.685,0-2.526a1.719,1.719,0,0,0-1.173-1.633,2.949,2.949,0,0,0-2.165.486,7.48,7.48,0,0,0-2.5,3.063,22.78,22.78,0,0,0-2.495,8.6,4.922,4.922,0,0,0,.357,2.273,1.158,1.158,0,0,0,1.118.7c1.614-.079,3.023-1.03,4.621-1.213a4.889,4.889,0,0,0,1.683-.3,1.062,1.062,0,0,0,.547-.982c.033-2,0-4,0-6,.736-.212,1.475-.423,2.218-.612q0,6.747,0,13.495a.814.814,0,0,1-.741.884c-1.365.022-2.731-.035-4.1.01a4.328,4.328,0,0,0-.277,8.6c1.415.13,2.837.041,4.255.062,1.9,0,3.8.011,5.7,0,.484.01.968.01,1.454,0a12.033,12.033,0,0,1,1.521.043.789.789,0,0,1,0,1.466,21.689,21.689,0,0,1-2.46.061q-4.164-.021-8.328,0a15.366,15.366,0,0,0-2.79.1,3.474,3.474,0,0,0-2.081,1.519,3.432,3.432,0,0,0,2.861,5.247c4.162.019,8.323,0,12.485.008a.787.787,0,1,1,0,1.572q-7.224.008-14.446,0a1.347,1.347,0,0,0-1.4,1.1,1.317,1.317,0,0,0,1.253,1.545q7.424.006,14.849,0a3.439,3.439,0,0,0-.12-6.868c-4.2-.02-8.4,0-12.606-.012a.778.778,0,0,1-.666-1.134.861.861,0,0,1,.8-.441q6.159,0,12.319,0a3.269,3.269,0,0,0,1.792-.47,3.434,3.434,0,0,0-1.52-6.385c-1.015-.025-2.03-.022-3.046-.024-3.135,0-6.265.028-9.4-.01a1.667,1.667,0,0,1,.135-3.324c.7-.006,1.4,0,2.1,0a4.213,4.213,0,0,0,3.329,2.047,10.371,10.371,0,0,0,5.013-.718,7.055,7.055,0,0,0,3.364-3.377,3.3,3.3,0,0,0-3.355-4.58,7.447,7.447,0,0,0-3.222,1.113q-.014-5.833,0-11.667c.742.149,1.469.367,2.211.519.013,2.033,0,4.068.008,6.1a1.152,1.152,0,0,0,.549,1.107,10.67,10.67,0,0,0,2.193.385c1.4.28,2.668,1.057,4.109,1.127a1.162,1.162,0,0,0,1.116-.684,4.856,4.856,0,0,0,.36-2.351,21.717,21.717,0,0,0-1.5-6.337,16.191,16.191,0,0,0-2.22-4.126,4.508,4.508,0,0,0-2.382-1.617,1.873,1.873,0,0,0-1.449.172,1.785,1.785,0,0,0-.78,1.463c-.012.78,0,1.558,0,2.338-.74-.184-1.486-.349-2.222-.551q.007-4.713,0-9.428c3.95-.017,7.9,0,11.85-.008a12.984,12.984,0,0,1,12.928,11.083,16.448,16.448,0,0,1,.135,2.663q0,14.892,0,29.784a6.905,6.905,0,0,1-.147,1.876,4.379,4.379,0,0,1-3.088,3.136,4.455,4.455,0,0,1-4.473-1.357,4.354,4.354,0,0,1-1.1-2.979q0-14.084,0-28.166c-1.228-.021-2.455,0-3.681-.009q0,17.087,0,34.173-13.774.008-27.547.005-.022-17.091-.008-34.178c-1.215,0-2.428,0-3.641,0q-.006,13.755,0,27.509a6.35,6.35,0,0,1-.171,1.978,4.451,4.451,0,0,1-2.84,2.943,4.376,4.376,0,0,1-5.779-4.131q0-15.759,0-31.517A12.471,12.471,0,0,1,409.406,1610.874Z" fill="#26786a"/>
  </g>
</svg>
