<svg xmlns="http://www.w3.org/2000/svg" width="83.87" height="62.933" viewBox="0 0 83.87 62.933">
  <g id="Group_7" data-name="Group 7" transform="translate(-893.065 -1593.374)">
    <path id="Path_14" data-name="Path 14" d="M911.978,1596a12.47,12.47,0,0,1,10.637-2.153,11.793,11.793,0,0,1,7.54,5.826,16.461,16.461,0,0,1,1.419,6.694c.2,4.39-.333,9.064-2.813,12.806-1.306,1.8-3.015,3.593-3.092,5.941-.133,1.177.854,1.974,1.562,2.753-.182,2.618.466,5.4-.661,7.871a7.563,7.563,0,0,1-4.652,4.081c-.518.273-.873-.358-1.314-.529-.915-.551-1.949.028-2.646.653a7.607,7.607,0,0,1-5.638-6.578c-.08-2-.022-4-.028-6a3.029,3.029,0,0,0,1.078-2.483c-.3-2.957-2.91-4.817-4.073-7.391-2.095-4.472-2.213-9.617-1.5-14.429A10.685,10.685,0,0,1,911.978,1596Z" fill="#26786a"/>
    <path id="Path_15" data-name="Path 15" d="M945.882,1593.613a5.969,5.969,0,1,1-4.26,6.986A5.991,5.991,0,0,1,945.882,1593.613Z" fill="#26786a"/>
    <path id="Path_16" data-name="Path 16" d="M959.882,1597.375a5.623,5.623,0,1,1-3.894,6A5.659,5.659,0,0,1,959.882,1597.375Z" fill="#26786a"/>
    <path id="Path_17" data-name="Path 17" d="M939.792,1607.894c1.524-.722,3.235-.535,4.867-.574,2.67-.113,5.338.022,8.008.02a7.053,7.053,0,0,1,5.324,2.841c2.908.049,5.815.008,8.725-.008a2.307,2.307,0,0,1,2.243,1.435c2.563,6.077,5.076,12.175,7.639,18.252a2.651,2.651,0,0,1,.193,2.086,2.3,2.3,0,0,1-3.37,1.086,2.912,2.912,0,0,1-1.047-1.472c-2.224-5.379-4.5-10.742-6.713-16.124a.935.935,0,0,0-.51-.562c2.328,8.118,4.679,16.231,6.991,24.353-1.6-.011-3.191,0-4.787-.009.014,4.856,0,9.712.006,14.565a2.469,2.469,0,0,1-1.717,2.491c-2.389.063-4.781.008-7.171.022.309-.424.745-.832.722-1.4.056-6.1-.033-12.2.061-18.29a18,18,0,0,1,2.271,6.682,1.41,1.41,0,0,0,1.769.987,1.5,1.5,0,0,0,.967-1.766,19.774,19.774,0,0,0-2.769-7.747,6.415,6.415,0,0,0-3.734-2.827,19.567,19.567,0,0,0-3.164-.124c-1.452.022-3.012-.168-4.321.609-2.1,1.2-3.3,3.464-4.106,5.666a19.126,19.126,0,0,0-1.138,4.946,1.415,1.415,0,0,0,2.731.35c.482-2.348.945-4.8,2.312-6.823.022,6.013,0,12.029.011,18.045a2.643,2.643,0,0,0,.7,1.7c-2.411-.033-4.822.019-7.234-.019a2.525,2.525,0,0,1-2.108-.965c-.669-.821-.471-1.937-.5-2.915-.006-12.768.024-25.535-.017-38.3.107-.623-.667-.5-1.044-.411-.034,5.465,0,10.93-.017,16.4a2.11,2.11,0,0,1-1.788,2.111,2.141,2.141,0,0,1-2.459-2.114q-.028-8,0-16.008a6.92,6.92,0,0,1,4.169-6.189m13.236,12.723a5.487,5.487,0,1,0,6.964,6.482,5.486,5.486,0,0,0-6.964-6.482Z" fill="#26786a"/>
    <path id="Path_18" data-name="Path 18" d="M897.739,1633.332c3.919-2.023,8.639-1.783,12.429-4.153.019,2.315-.254,4.732.655,6.928a9.815,9.815,0,0,0,6.989,5.975c.325.374.67.733,1.028,1.08.028,1.791-.229,3.673.51,5.365a7.357,7.357,0,0,0,13.853-.52,11.938,11.938,0,0,0,.322-4.007,3.674,3.674,0,0,0,2.244-4.266,3.532,3.532,0,1,0-6.589,2.439,4.136,4.136,0,0,0,2.444,1.975,7.092,7.092,0,0,1-.816,4.589,5.475,5.475,0,0,1-10.058-2.381c-.058-1.083-.009-2.166-.022-3.249.341-.328.669-.67.978-1.028a9.814,9.814,0,0,0,7.058-6.145c.818-2.056.545-4.3.575-6.46a29.788,29.788,0,0,0,3.3,1.356,7.247,7.247,0,0,0,1.694,2.965,5.226,5.226,0,0,0,3.682,1.375q-.008,9.172,0,18.345a7.09,7.09,0,0,0,.552,2.718q-22.69-.054-45.383-.009a86.909,86.909,0,0,1,.155-11.3,30.458,30.458,0,0,1,1.7-8.512A5.407,5.407,0,0,1,897.739,1633.332Z" fill="#26786a"/>
    <path id="Path_19" data-name="Path 19" d="M931.28,1639.345a1.658,1.658,0,1,1,.429,2.8A1.679,1.679,0,0,1,931.28,1639.345Z" fill="#26786a"/>
    <path id="Path_20" data-name="Path 20" d="M953.717,1646.254c.615-.006,1.229-.008,1.844-.011.016,2.877-.022,5.757.016,8.636-.016.557.419.973.689,1.425-1.094,0-2.185,0-3.277-.022a2.406,2.406,0,0,0,.778-1.67C953.723,1651.826,953.8,1649.04,953.717,1646.254Z" fill="#26786a"/>
  </g>
</svg>
