<svg xmlns="http://www.w3.org/2000/svg" width="66.416" height="71.475" viewBox="0 0 66.416 71.475">
  <g id="Group_12" data-name="Group 12" transform="translate(-1387.178 -1190.052)">
    <path id="Path_35" data-name="Path 35" d="M1447.234,1190.1q-13.841-.1-27.682,0a6.556,6.556,0,0,0-6.48,6.413c-.064,2.467-.016,4.937-.018,7.405l-.277.246c-7.614-.723-14.224,6.83-13.145,14.084,1.119,7.532,7.751,12.568,14.75,11.324,5.061-.9,8.3-3.9,10.348-8.437,1-.118,1.28.347,1.251,1.308-.062,2.121-.025,4.245-.01,6.368,0,.387-.042.962.174,1.117.387.278.7-.251.991-.48a36.49,36.49,0,0,0,4.626-3.731,14.058,14.058,0,0,1,13.066-4.52,7.653,7.653,0,0,0,6.69-1.844,7.33,7.33,0,0,0,2.076-5.313v-16.928a7.235,7.235,0,0,0-.723-3.288A6.036,6.036,0,0,0,1447.234,1190.1Zm1.523,23.743a2.365,2.365,0,0,1-2.491,2.471,32.763,32.763,0,0,1-4.53.036c-3.684-.252-7.129.085-9.827,3.036-.774.845-1.274.616-1.252-.577.036-1.918-1.128-2.477-2.809-2.427a6.416,6.416,0,0,0-2.358.257c.972-4.887-3.681-10.449-7.308-11.841a1.214,1.214,0,0,0-.6-.06c.654-2.343.163-4.741.342-7.106.149-1.976.685-2.636,2.653-2.654q12.671-.116,25.344-.009c1.717.013,2.769.864,2.823,2.6C1448.912,1203,1448.889,1208.424,1448.757,1213.848Z" fill="#26786a"/>
    <path id="Path_36" data-name="Path 36" d="M1437.1,1240.519a9.266,9.266,0,0,0-5.947-6.985c-3.442-1.434-3.541-1.412-3.909,2.232-.166,1.642-.306,3.141,1.534,4.192a4.257,4.257,0,0,1,1.959,3.7,37.111,37.111,0,0,1-1.641,11.964c-.564,1.63-1.957,2.2-3.662,1.922-.673-.109-1.194-.389-1.2-1.158-.005-.787.492-1.048,1.208-1.083.94-.047,1.869-.28,2.026-1.363a47.545,47.545,0,0,0,.828-9.822,3.576,3.576,0,0,0-3.289-3.63,3.81,3.81,0,0,0-4.4,2.594c-.976,2.552-1.819,5.155-2.72,7.736-.4,1.151-.382,2.158.894,2.777.652.316,1.281.718.778,1.566a1.456,1.456,0,0,1-2,.49,3.218,3.218,0,0,1-2.055-3.444c.167-3.363,1.8-6.278,2.811-9.385a6.268,6.268,0,0,1,5.254-4.619,1.488,1.488,0,0,0,1.458-1.585,30.148,30.148,0,0,0,.063-3.7c-.109-2.122-2.065-1.684-3.274-2.117-1.174-.42-.95.925-1.156,1.483a50.314,50.314,0,0,1-4.028,8.518,2.185,2.185,0,0,1-.657.736c-.229.14-.325-.151-.328-.343-.027-1.759-1.179-3.418-.506-5.23a1.736,1.736,0,0,0-.892-2.244c-.415-.278-.767-.9-1.369-.258-.619.657-1.745.954-1.424,2.243a9.408,9.408,0,0,1-.347,4.873c-.086.31-.07.865-.212.9-.518.143-.626-.4-.823-.728a35.218,35.218,0,0,1-3.957-8.771c-.408-1.509-1.17-1.52-2.362-1.032a2.471,2.471,0,0,0-1.41,1.872,27.417,27.417,0,0,0,.174,15.815,2.365,2.365,0,0,0,1.7,1.832c1.881.561,2.291,2.054,1.837,3.778a3.231,3.231,0,0,1-3.852,1.95,2.845,2.845,0,0,1-1.814-3.8,3.45,3.45,0,0,0,.065-2.349,31.45,31.45,0,0,1-1.29-13.217c.127-1.478.456-2.94.693-4.409-1.63-.18-8.6,2.88-9.409,5.285-1.144,3.337-3.16,18.456-3.267,20.717a2.681,2.681,0,0,0,2.922,3.095q23.3.018,46.609,0c2.106,0,3.014-.976,2.828-3.09A129.81,129.81,0,0,0,1437.1,1240.519Z" fill="#26786a"/>
  </g>
</svg>
