<svg xmlns="http://www.w3.org/2000/svg" width="33.414" height="33.416" viewBox="0 0 33.414 33.416">
  <g id="_010101ff" data-name="#010101ff" transform="translate(-286.322 -853.364)">
    <g id="Group_50" data-name="Group 50">
      <path id="Path_54" data-name="Path 54" d="M303.471,853.411a2.027,2.027,0,0,1,1.071.075,22.447,22.447,0,0,1,5.05,1.951,19.737,19.737,0,0,1,5.965,4.76,17.7,17.7,0,0,1,3.8,8.1,22.248,22.248,0,0,1,.361,5.035,1.408,1.408,0,0,1-2.166,1.171,1.4,1.4,0,0,1-.65-1.236,19.263,19.263,0,0,0-.465-5.173,14.594,14.594,0,0,0-2.636-5.6,16.929,16.929,0,0,0-5.5-4.55,19.368,19.368,0,0,0-4.839-1.818,1.406,1.406,0,0,1,0-2.717Z" fill="#fff"/>
    </g>
    <g id="Group_51" data-name="Group 51">
      <path id="Path_55" data-name="Path 55" d="M289.894,857.947a2.373,2.373,0,0,1,1.458-.477,2.116,2.116,0,0,1,1.619.861c1.163,1.515,2.29,3.055,3.437,4.581a2.383,2.383,0,0,1,.52,1.315,2.146,2.146,0,0,1-.739,1.718c-.411.363-.857.683-1.295,1.012-.413.3-.819.618-1.258.886a24.641,24.641,0,0,0,1.965,4.364,19.248,19.248,0,0,0,4.645,5.273c.441.349.883.7,1.344,1.021.094.061.176-.068.254-.106q1.014-.791,2.047-1.555a2.463,2.463,0,0,1,1.453-.551,2.22,2.22,0,0,1,1.766.914c1.16,1.516,2.288,3.056,3.441,4.577a2.572,2.572,0,0,1,.491,1.267,2.2,2.2,0,0,1-.707,1.662,7.321,7.321,0,0,1-3.288,1.861,6.529,6.529,0,0,1-3.426-.039,18.606,18.606,0,0,1-7.062-3.873,30.413,30.413,0,0,1-4.537-4.834,40.6,40.6,0,0,1-3.955-6.165,14.531,14.531,0,0,1-1.739-6.816,9.45,9.45,0,0,1,.167-1.751,8.824,8.824,0,0,1,.311-1.171A7.184,7.184,0,0,1,289.894,857.947Z" fill="#fff"/>
    </g>
    <g id="Group_52" data-name="Group 52">
      <path id="Path_56" data-name="Path 56" d="M302.718,862.082a2.012,2.012,0,0,1,1.105.066,10.4,10.4,0,0,1,4.785,2.759,8.985,8.985,0,0,1,2.364,4.436,11.008,11.008,0,0,1,.214,2.7,1.409,1.409,0,0,1-2.311,1.012,1.445,1.445,0,0,1-.5-1.22,6.867,6.867,0,0,0-.978-3.954,7.508,7.508,0,0,0-4.648-3.093,1.406,1.406,0,0,1-.029-2.71Z" fill="#fff"/>
    </g>
  </g>
</svg>
