<svg xmlns="http://www.w3.org/2000/svg" width="54.377" height="54.381" viewBox="0 0 54.377 54.381">
  <path id="Path_55" data-name="Path 55" d="M744.151,2199.487c.007-5.8-.037-11.6.021-17.393,6.505.029,13.012,0,19.517.013.086,5.791.012,11.587.037,17.38,5.8.037,11.6-.049,17.391.042,0,6.506-.019,13.013.01,19.518-5.8.066-11.6,0-17.4.031-.011,5.8.025,11.593-.019,17.389-6.515-.006-13.03-.021-19.543.008-.042-5.8-.006-11.6-.017-17.393-5.8-.029-11.6.017-17.4-.024q.021-9.768,0-19.538C732.55,2199.45,738.351,2199.518,744.151,2199.487Z" transform="translate(-726.75 -2182.094)" fill="#fff"/>
</svg>
