<svg xmlns="http://www.w3.org/2000/svg" width="90.438" height="76.977" viewBox="0 0 90.438 76.977">
  <g id="Group_11" data-name="Group 11" transform="translate(-383.875 -2119.408)">
    <path id="Path_31" data-name="Path 31" d="M450.355,2153.559a8.592,8.592,0,0,0-.656-5.051,5.387,5.387,0,0,0-.615-1.01c-.094-.133-.187-.262-.271-.391a8.024,8.024,0,0,0,4.441-5.87,8.146,8.146,0,0,0-1.085-5.617c1.252-.009,2.5-.006,3.754,0,1.533,0,3.067.007,4.6-.012a8.629,8.629,0,0,0,4.779-1.355,8.209,8.209,0,0,0,3.175-3.719,8.02,8.02,0,0,0-.107-6.335,8.281,8.281,0,0,0-5.363-4.509,10.14,10.14,0,0,0-2.973-.277c-.308,0-.617.006-.934,0H411.631l-.66,0a24.683,24.683,0,0,0-3.237.157,26.956,26.956,0,0,0-9.028,2.7,28.011,28.011,0,0,0-8.393,6.491,27.461,27.461,0,0,0-5.3,9.641,25.65,25.65,0,0,0-.045,14.984,26.633,26.633,0,0,0,13.262,15.787l.61.285a25.2,25.2,0,0,0,3.546,1.448,30.452,30.452,0,0,0,7.665,1.373q8.307.019,16.616.012,5.919,0,11.845,0l.465,0a9.618,9.618,0,0,0,1.814-.117,8.427,8.427,0,0,0,6.058-4.6,10.466,10.466,0,0,1,3.5-14.015Zm-34.205-1,0-14.784c0-.283,0-.565,0-.849a16.379,16.379,0,0,0-.212-3.327,2.024,2.024,0,0,0-2.843-1.085,2.141,2.141,0,0,0-1.07,1.652,15.474,15.474,0,0,1-.615,3.863l-.049.151a16.279,16.279,0,0,1-1.921,4.315,16.7,16.7,0,0,1-9.521,7.132c-.6.18-1.422.427-1.677,1.168a1.886,1.886,0,0,0,.113,2.048,1.913,1.913,0,0,0,1.9.87,15.586,15.586,0,0,0,3.5-1.191l.186-.081a20.468,20.468,0,0,0,7.643-5.987c.18-.217.345-.446.505-.678.015,1.5,0,3-.007,4.469v.289c.02.4.019.8.019,1.21a8.715,8.715,0,0,0,.482,3.525,8.245,8.245,0,0,0,6.98,5.287,7.533,7.533,0,0,0-.81,2.833l-.005.277a8.045,8.045,0,0,0,.252,2.731,7.167,7.167,0,0,0,.792,1.807l.057.1c-1.974.014-3.948.011-5.923.008l-3.221,0a23.441,23.441,0,0,1-15.358-5.948,21.446,21.446,0,0,1-6.344-9.7,21.986,21.986,0,0,1-.814-10.059,22.457,22.457,0,0,1,5.775-11.827l.009-.009a23.5,23.5,0,0,1,16.724-7.484c1.183.006,2.365,0,3.547,0,1.745,0,3.49-.007,5.166.008a6.632,6.632,0,0,1,3.438,1.173,2.837,2.837,0,0,1,1.067,1.752c.033.164.069.327.1.491a6.91,6.91,0,0,1,.221,1.468q.009,5.782,0,11.564c0,4.113,0,8.225.005,12.358a4.33,4.33,0,0,1-1.966,3.79,4.64,4.64,0,0,1-2.267.62,4.231,4.231,0,0,1-3.215-1.873A4.026,4.026,0,0,1,416.15,2152.556Zm6.61,11.246a4.6,4.6,0,0,1,1.007-2.315,4.341,4.341,0,0,1,2.177-1.27,6.77,6.77,0,0,1,.993-.052l.257,0h1.752q5.254,0,10.531,0a4.07,4.07,0,0,1,4.021,4.325,4.156,4.156,0,0,1-2.771,3.517,3.962,3.962,0,0,1-1.57.191h-.332q-1.488,0-2.974,0h-2.635c-2.274,0-4.544,0-6.8-.006a3.8,3.8,0,0,1-2.682-1.391A3.982,3.982,0,0,1,422.76,2163.8Zm19.364-7.748q-1.721-.006-3.441,0l-3.264,0c-2.677,0-5.356.006-8.035-.009.054-.116.108-.233.163-.349l.187-.405a8.243,8.243,0,0,0,.513-3.06c-.005-.612,0-1.224,0-1.835,0-.8.005-1.6-.007-2.4.175-.014.351-.02.527-.02q6.133.009,12.266,0a7.251,7.251,0,0,1,3.115.41,4.292,4.292,0,0,1,2.3,3.406,4.077,4.077,0,0,1-2.963,4.123A4.459,4.459,0,0,1,442.124,2156.054Zm3.3-12.126q-3.575.014-7.154,0c-3.341,0-6.682-.009-10.02.02.006-1.071,0-2.142,0-3.214-.006-1.611-.012-3.271.019-4.908.261-.013.528-.007.807,0,.214,0,.431.008.637,0q4.545.006,9.086,0h6.631a3.933,3.933,0,0,1,2.835,1.363,3.856,3.856,0,0,1,1.009,2.929A4.052,4.052,0,0,1,445.42,2143.928Zm-17.173-12.272v-1.01c0-1.186,0-2.372-.039-3.595a13.733,13.733,0,0,0-.576-2.63,5.3,5.3,0,0,0-.544-1.133l-.008-.014q13.017.026,26.031.008l7.114,0a4.911,4.911,0,0,1,2.613.6,4,4,0,0,1,1.83,5.245,4.257,4.257,0,0,1-2.647,2.3,7.612,7.612,0,0,1-2.542.237c-.207,0-.413-.007-.615-.007-.134,0-.267,0-.4.005H446.852Q437.555,2131.663,428.247,2131.656Z" fill="#26786a"/>
    <path id="Path_32" data-name="Path 32" d="M460.541,2130.47a1.761,1.761,0,0,0,.792.184,2.031,2.031,0,0,0,.989-.266,1.965,1.965,0,0,0,1.025-1.535,14.655,14.655,0,0,0,0-2.288,2.028,2.028,0,0,0-.92-1.476,1.968,1.968,0,0,0-1.668-.264l-.029.01a2.1,2.1,0,0,0-1.409,1.792c-.034.724-.023,1.434-.008,2.022A1.939,1.939,0,0,0,460.541,2130.47Z" fill="#26786a"/>
    <path id="Path_33" data-name="Path 33" d="M461.355,2144.081a2.473,2.473,0,0,0,.785-.127l.106-.05a2.061,2.061,0,0,0,1.11-1.67,1.98,1.98,0,0,0-.822-1.774,1.875,1.875,0,0,0-1.829-.286,1.991,1.991,0,0,0-1.238,1.136,1.994,1.994,0,0,0,1.888,2.771Z" fill="#26786a"/>
    <path id="Path_34" data-name="Path 34" d="M459.88,2152.644a1.879,1.879,0,0,0,1.46.661h.027a1.859,1.859,0,0,0,1.442-.661,2.6,2.6,0,0,0,.575-1.986v-.343c-.008-.13-.008-.264-.008-.4a2.661,2.661,0,0,0-.367-1.622,2.024,2.024,0,0,0-2.669-.635,2.379,2.379,0,0,0-1.041,2.406c.011.171.007.351,0,.533A2.489,2.489,0,0,0,459.88,2152.644Z" fill="#26786a"/>
    <path id="Path_35" data-name="Path 35" d="M473.819,2180.192a38.958,38.958,0,0,0-4.825-8.894,14.028,14.028,0,0,0-1.764-2.483,17.315,17.315,0,0,1-1.3-1.737,14.944,14.944,0,0,0-1.744-2.232,7.959,7.959,0,0,1-.715-.873,8.044,8.044,0,0,0-.948-1.112,2.269,2.269,0,0,0-1.7-.424,1.837,1.837,0,0,0-1.23.749,94.866,94.866,0,0,0-7.8,10.668,31.343,31.343,0,0,0-3.169,6.534,11.659,11.659,0,0,0,.037,6.678,14.339,14.339,0,0,0,3.611,5.844,15.191,15.191,0,0,0,3.075,2.1,12.264,12.264,0,0,0,5.788,1.371q.4,0,.8-.022a12.822,12.822,0,0,0,8.69-3.918,21.56,21.56,0,0,0,2.85-4.26A12.6,12.6,0,0,0,473.819,2180.192Zm-4.6,7.4a9.346,9.346,0,0,1-3.077,3.328,9.175,9.175,0,0,1-3.385,1.379l-.356-.325-.3.341a1.134,1.134,0,0,1-.151.017.893.893,0,0,0-.2.023,9.265,9.265,0,0,1-5.818-1.705,9.123,9.123,0,0,1-3.662-6.185,5.768,5.768,0,0,1,.3-3.049,26.815,26.815,0,0,1,2.885-5.8,92.724,92.724,0,0,1,5.53-7.748c.077-.094.157-.183.238-.272a4.368,4.368,0,0,1,.447.639l.391.484a18.813,18.813,0,0,1,1.3,1.675,33.1,33.1,0,0,1,2.477,3.4l.213.313a23.657,23.657,0,0,1,1.28,2.028c.177.334.38.651.584.968a10.373,10.373,0,0,1,.638,1.086l.17.352a13.645,13.645,0,0,1,1.433,3.919A8.26,8.26,0,0,1,469.219,2187.592Z" fill="#26786a"/>
    <path id="Path_36" data-name="Path 36" d="M460.188,2186a4.266,4.266,0,0,1-1.123-.834,3.158,3.158,0,0,1-.481-.921,4.642,4.642,0,0,0-.51-1.024,2.106,2.106,0,0,0-2-.624,1.885,1.885,0,0,0-1.224.811c-.075.089-.148.177-.226.253l-.167.166.021.234c.011.123.017.247.024.371a3.925,3.925,0,0,0,.262,1.422,7.368,7.368,0,0,0,.717,1.274,8.812,8.812,0,0,1,.5.834l.067.133.129.074c.3.174.589.373.877.572a7.075,7.075,0,0,0,2.06,1.1,1.77,1.77,0,0,0,.541.084,1.994,1.994,0,0,0,1.194-.41,1.826,1.826,0,0,0,.746-1.555,1.516,1.516,0,0,0-.487-1.359A7.562,7.562,0,0,0,460.188,2186Z" fill="#26786a"/>
  </g>
</svg>
