<svg xmlns="http://www.w3.org/2000/svg" width="67.34" height="58.542" viewBox="0 0 67.34 58.542">
  <g id="Group_8" data-name="Group 8" transform="translate(-1259.049 -5256.181)">
    <path id="Path_19" data-name="Path 19" d="M1283.812,5259.388c11.544-6.157,26.951-3.211,35.375,6.8,8.975,9.889,9.651,26,1.528,36.6-7.63,10.73-22.879,14.966-34.936,9.642a34.358,34.358,0,0,1-9.4-6.185c1.711-1.747,3.44-3.476,5.168-5.2,4.026,3.6,9.122,6.211,14.62,6.321a21.943,21.943,0,1,0-4.071-43.279c-8.489,1.885-15.067,9.221-16.7,17.674,2.881.027,5.763.027,8.644.036q-6.243,6.258-12.488,12.487-6.255-6.242-12.495-12.487c2.983-.019,5.974-.009,8.965-.019a30,30,0,0,1,15.8-22.384" fill="#26786a"/>
    <path id="Path_20" data-name="Path 20" d="M1295.375,5270.466c.412.164,1.235.5,1.647.668,1.061,5.306,1.217,10.758,1.957,16.119,2.443,2.442,4.877,4.9,7.329,7.328-.459.465-1.373,1.381-1.83,1.838q-5.49-2.747-10.978-5.489c.631-6.824,1.216-13.648,1.875-20.464" fill="#26786a"/>
  </g>
</svg>
