<svg xmlns="http://www.w3.org/2000/svg" width="88.076" height="99.033" viewBox="0 0 88.076 99.033">
  <g id="Group_15" data-name="Group 15" transform="translate(-890.962 -2363.731)">
    <path id="Path_54" data-name="Path 54" d="M929.8,2435.393a26.656,26.656,0,0,0-1.868,8.757,9.151,9.151,0,0,0,1.252,5.341,6.155,6.155,0,0,0,3.991,2.637,4.928,4.928,0,0,0,4.684-.866,6.721,6.721,0,0,0,1.886-4.99,28.632,28.632,0,0,0-3.03-12.077c-.286-.67-.826-1.3-.734-2.066.231-5.181.939-10.325,1.418-15.485.823-5.264,1.573-10.549,2.9-15.714a103.464,103.464,0,0,1,15.251-34.331c.609-.967,1.359-1.846,1.88-2.868a14.664,14.664,0,0,0-1.747,1.821,80.868,80.868,0,0,0-8.264,12,141.19,141.19,0,0,0-12.377,29.131c-2.207,7.653-3.917,15.553-3.776,23.557a16.4,16.4,0,0,1,.029,2.227A20.4,20.4,0,0,0,929.8,2435.393Z" fill="#26786a"/>
    <path id="Path_55" data-name="Path 55" d="M979,2424.138a22.983,22.983,0,0,0-.015-2.839c-1.58-.12-3.162.036-4.742,0-6.922.009-23.844,0-30.763,0a4.6,4.6,0,0,0-4.123,2.654,15.428,15.428,0,0,0-.641,4.16,14.174,14.174,0,0,0,.865,6.5,32.371,32.371,0,0,1,2.573,10.007,12.774,12.774,0,0,1-1.113,6.521,7.123,7.123,0,0,1-6.993,3.658,10.143,10.143,0,0,1-4.978-1.9,9.753,9.753,0,0,1-3.592-7.1c-.337-4.426,1.052-8.744,2.623-12.82a14.114,14.114,0,0,0,.691-5.1c-.019-1.389.325-2.924-.453-4.179a4.574,4.574,0,0,0-3.941-2.4c-7.79.024-25.579-.014-33.369.022a14.3,14.3,0,0,0,0,2.806h0v38.637h88.006v-38.616Z" fill="#26786a"/>
  </g>
</svg>
