<svg xmlns="http://www.w3.org/2000/svg" width="81.257" height="71.214" viewBox="0 0 81.257 71.214">
  <g id="Group_10" data-name="Group 10" transform="translate(-894.371 -1857.839)">
    <path id="Path_28" data-name="Path 28" d="M942.809,1858.035c1.115-.012,2.215-.257,3.332-.181.02,2.921.231,5.832.43,8.745a1.291,1.291,0,0,0,.549.967,6.909,6.909,0,0,0,2.4,1.443,12.584,12.584,0,0,0,2.3.374c.832.175,1.679.262,2.523.37a51.339,51.339,0,0,1,6.06,1.291,23.787,23.787,0,0,1,7.13,3.3,16.294,16.294,0,0,1,5.111,5.854,25.556,25.556,0,0,1,2.792,15.268,42.222,42.222,0,0,1-8.76,21.062,32.492,32.492,0,0,1-10.826,8.925,36.3,36.3,0,0,1-14.3,3.514,44.888,44.888,0,0,1-7.4-.186,42.411,42.411,0,0,1-12.529-3.2,16.885,16.885,0,0,1-6.818-5.431,29.958,29.958,0,0,0-1.587-2.678,2.579,2.579,0,0,0-1.727.312c-2.31,1.275-4.393,2.922-6.654,4.273-.545-.962-1.248-1.823-1.788-2.786,1.36-.995,2.762-1.931,4.145-2.893a13.472,13.472,0,0,1,4.315-2.37,4.157,4.157,0,0,1,3.829.808,12.472,12.472,0,0,1,1.849,2.791,8.808,8.808,0,0,0,1.883,2.275,17.364,17.364,0,0,0,5.445,3.2,42.892,42.892,0,0,0,8.526,2.107,40.484,40.484,0,0,0,16.373-.9,25.972,25.972,0,0,0,7.588-3.3,32.3,32.3,0,0,0,9.837-10.414,38.524,38.524,0,0,0,5.179-14.5c.088-1.068.187-2.134.236-3.206a22.466,22.466,0,0,0-1.722-9.216,14.8,14.8,0,0,0-5.209-6.562c-3.29-2.231-7.263-3.078-11.124-3.707-1.241-.126-2.461-.388-3.7-.51a10.2,10.2,0,0,1-6.751-3.795,4.438,4.438,0,0,1-.732-2.482c-.126-1.733-.064-3.472-.106-5.207C942.817,1860.275,942.837,1859.153,942.809,1858.035Z" fill="#26786a"/>
    <path id="Path_29" data-name="Path 29" d="M931.87,1858.171c1.108-.009,2.216-.081,3.325-.069a30.94,30.94,0,0,0,.142,3.322c.054.79.006,1.583.074,2.371.166.907.045,1.836.173,2.746.115,1.157.084,2.329.275,3.475a25.043,25.043,0,0,0,1.152,4.055,5.166,5.166,0,0,0,1.494,1.714,13.474,13.474,0,0,1,2.745,2.867,17.455,17.455,0,0,1,1.933,3.908,15.755,15.755,0,0,1-.341,12.673,15.477,15.477,0,0,1-10.147,7.92,20.426,20.426,0,0,1-6.675.128c-.778-.129-1.576-.026-2.354-.165a10.824,10.824,0,0,0-5.577.816,5.809,5.809,0,0,0-1.535,1.138,7.3,7.3,0,0,1-4.437,1.812c-1.028.086-2.055.183-3.074.35a13.592,13.592,0,0,0-3.313,1.275,17.22,17.22,0,0,0-4.512,3.1,32.694,32.694,0,0,0-3.4,4.61,2.146,2.146,0,0,1-.68.746c-.963-.52-1.8-1.253-2.765-1.774.308-.57.731-1.066,1.08-1.608a31.643,31.643,0,0,1,3.877-4.93,21.646,21.646,0,0,1,4.718-3.3,13.961,13.961,0,0,1,5.762-1.873,12.471,12.471,0,0,0,3.68-.645,7.787,7.787,0,0,0,1.5-1.187,9.863,9.863,0,0,1,4.7-1.965c2.885-.424,5.79.051,8.683.091a9.886,9.886,0,0,0,5.557-.807,11.247,11.247,0,0,0,5.581-4.97,10.962,10.962,0,0,0,1.359-5.524,14.238,14.238,0,0,0-1.283-5.9,10.31,10.31,0,0,0-2.507-3.752,14.32,14.32,0,0,1-2.514-2.54,12.068,12.068,0,0,1-1.487-3.882c-.127-.62-.351-1.216-.493-1.831-.246-1.757-.228-3.534-.392-5.3-.054-.776,0-1.559-.115-2.329-.091-.823-.032-1.653-.093-2.477A13.42,13.42,0,0,1,931.87,1858.171Z" fill="#26786a"/>
    <path id="Path_30" data-name="Path 30" d="M966.124,1899.811a1.606,1.606,0,0,0-1.353-.917c-1.735-.016-3.471.033-5.206.042-1.442.03-2.886-.005-4.327.079a26.611,26.611,0,0,0-12.412,3.377c-1.436.764-2.745,1.751-4.2,2.482a17.8,17.8,0,0,1-5.878,2.067,19.706,19.706,0,0,1-3.455.263c-1.516.06-3.014-.19-4.524-.259a23.338,23.338,0,0,0-3.435-.057,2.835,2.835,0,0,0-1.912.781,3.7,3.7,0,0,0-.865,3.434c.281,1.127,1.248,1.87,1.8,2.853.436.644.584,1.468,1.177,2.006a13.275,13.275,0,0,0,5.8,3.221,53.039,53.039,0,0,0,7.29,1.5c1.5.209,3.022.273,4.534.359,1.2-.119,2.41-.055,3.608-.206a35.359,35.359,0,0,0,7.176-1.464,26.045,26.045,0,0,0,12.206-9.664,35.524,35.524,0,0,0,3.763-7.064c.167-.434.376-.852.514-1.3A1.878,1.878,0,0,0,966.124,1899.811Z" fill="#26786a"/>
  </g>
</svg>
