<svg xmlns="http://www.w3.org/2000/svg" width="57.607" height="69.118" viewBox="0 0 57.607 69.118">
  <g id="Group_46" data-name="Group 46" transform="translate(-1268.782 -2250.556)">
    <path id="Path_61" data-name="Path 61" d="M1286.429,2253.088a26.18,26.18,0,0,1,15.365-2.2,25.272,25.272,0,0,1,14.011,7.2,25.9,25.9,0,0,1-6.939,41.736,26.723,26.723,0,0,1-9.836,2.565c0,1.975-.013,3.947.005,5.922a6.359,6.359,0,0,1,3.047,2.016,7.486,7.486,0,0,1,1.122,2.14c7.25.054,14.5-.016,21.755.029a1.434,1.434,0,0,1,1.388,1.749,1.479,1.479,0,0,1-1.564,1.118c-7.194.016-14.389-.011-21.583.009a6.4,6.4,0,0,1-1.917,2.961,5.772,5.772,0,0,1-6.409.671,6.116,6.116,0,0,1-2.9-3.632c-7.252-.02-14.5.013-21.755-.018a1.437,1.437,0,0,1-1.4-1.75,1.48,1.48,0,0,1,1.569-1.123q10.79.009,21.579,0a6.377,6.377,0,0,1,2.018-3.049,7.4,7.4,0,0,1,2.151-1.118q.024-2.967-.013-5.931a25.928,25.928,0,0,1-9.7-49.287m4.6,4.6a26.565,26.565,0,0,0-3.742,8.7c2.953.027,5.909.01,8.863.009,0-4.259.023-8.518-.02-12.776a9.9,9.9,0,0,0-5.1,4.062m8.018-4.066c-.027,4.257-.018,8.516-.005,12.772,2.952,0,5.9.031,8.856,0a28.4,28.4,0,0,0-2.9-7.4c-1.37-2.322-3.272-4.582-5.951-5.371M1276.9,2266.4c2.456.011,4.911.016,7.367-.009a32.689,32.689,0,0,1,3.337-8.724c.518-.936,1.182-1.777,1.769-2.668a22.927,22.927,0,0,0-12.473,11.4m28.884-11.435c.472.727,1.014,1.408,1.467,2.149a31.8,31.8,0,0,1,3.665,9.288c2.457.016,4.916,0,7.372-.007a22.851,22.851,0,0,0-12.5-11.43m-30.078,14.349a23.449,23.449,0,0,0,0,14.345c2.669.067,5.342.007,8.015.022a49.172,49.172,0,0,1,.005-14.394c-2.674.034-5.349-.041-8.022.027m10.956-.009a44.2,44.2,0,0,0,0,14.363c3.161.04,6.325.011,9.488.015q.01-7.192-.008-14.387c-3.16-.009-6.321-.029-9.48.009m12.375-.014c0,4.8-.013,9.59.007,14.384,3.16,0,6.321.038,9.48-.01a44.359,44.359,0,0,0,0-14.356c-3.162-.049-6.325-.015-9.487-.018m12.423,0a48.941,48.941,0,0,1-.006,14.39q4.031.007,8.066,0a23.534,23.534,0,0,0-.029-14.367c-2.677-.061-5.355.006-8.031-.021m-34.559,17.281a22.923,22.923,0,0,0,12.472,11.4c-.18-.281-.369-.554-.563-.824a29.617,29.617,0,0,1-4.54-10.578c-2.457-.013-4.912.007-7.369,0m10.386.009a27.9,27.9,0,0,0,2.971,7.509c1.352,2.286,3.253,4.473,5.879,5.261.034-4.257.014-8.515.005-12.772-2.951-.011-5.9-.025-8.855,0m11.75-.009c.005,4.258-.033,8.517.019,12.774a10.053,10.053,0,0,0,5.172-4.169,26.5,26.5,0,0,0,3.668-8.6c-2.952-.027-5.906-.011-8.859-.009m11.881.011a31.711,31.711,0,0,1-3.737,9.388c-.43.691-.938,1.33-1.379,2.014a22.812,22.812,0,0,0,12.524-11.41c-2.469-.018-4.939,0-7.408.008m-13.982,24.54a2.876,2.876,0,1,0,3.512,2.462A2.894,2.894,0,0,0,1296.931,2311.116Z" fill="#26786a"/>
  </g>
</svg>
